<?xml version="1.0" standalone="no"?>
<!DOCTYPE svg PUBLIC "-//W3C//DTD SVG 20010904//EN"
 "http://www.w3.org/TR/2001/REC-SVG-20010904/DTD/svg10.dtd">
<svg version="1.0" xmlns="http://www.w3.org/2000/svg"
 width="400.000000pt" height="400.000000pt" viewBox="0 0 400.000000 400.000000"
 preserveAspectRatio="xMidYMid meet">
<metadata>
Created by potrace 1.11, written by Peter Selinger 2001-2013
</metadata>
<g transform="translate(0.000000,400.000000) scale(0.100000,-0.100000)"
fill="#000000" stroke="none">
<path d="M0 2635 l0 -1365 358 0 357 0 -1 -635 0 -635 285 2 286 3 1 630 1
630 244 5 c134 3 455 4 714 2 l470 -2 -1 -635 -1 -635 286 2 286 3 1 627 c0
345 3 630 6 633 3 3 164 6 357 5 l351 0 0 1365 0 1365 -2000 0 -2000 0 0
-1365z"/>
</g>
</svg>
