<?xml version="1.0" encoding="UTF-8" standalone="no"?>
<!-- Created with Inkscape (http://www.inkscape.org/) -->

<svg
   xmlns:dc="http://purl.org/dc/elements/1.1/"
   xmlns:cc="http://creativecommons.org/ns#"
   xmlns:rdf="http://www.w3.org/1999/02/22-rdf-syntax-ns#"
   xmlns:svg="http://www.w3.org/2000/svg"
   xmlns="http://www.w3.org/2000/svg"
   xmlns:sodipodi="http://sodipodi.sourceforge.net/DTD/sodipodi-0.dtd"
   xmlns:inkscape="http://www.inkscape.org/namespaces/inkscape"
   width="173.52493mm"
   height="68.387276mm"
   viewBox="0 0 614.85212 242.31712"
   id="svg5577"
   version="1.1"
   inkscape:version="0.91 r13725"
   sodipodi:docname="kopf.svg">
  <defs
     id="defs5579" />
  <sodipodi:namedview
     id="base"
     pagecolor="#ffffff"
     bordercolor="#666666"
     borderopacity="1.0"
     inkscape:pageopacity="0.0"
     inkscape:pageshadow="2"
     inkscape:zoom="1.4"
     inkscape:cx="321.14441"
     inkscape:cy="168.66484"
     inkscape:document-units="px"
     inkscape:current-layer="layer1"
     showgrid="false"
     fit-margin-top="0"
     fit-margin-left="0"
     fit-margin-right="0"
     fit-margin-bottom="0"
     inkscape:window-width="1855"
     inkscape:window-height="1056"
     inkscape:window-x="65"
     inkscape:window-y="1104"
     inkscape:window-maximized="1" />
  <metadata
     id="metadata5582">
    <rdf:RDF>
      <cc:Work
         rdf:about="">
        <dc:format>image/svg+xml</dc:format>
        <dc:type
           rdf:resource="http://purl.org/dc/dcmitype/StillImage" />
        <dc:title></dc:title>
      </cc:Work>
    </rdf:RDF>
  </metadata>
  <g
     inkscape:label="Layer 1"
     inkscape:groupmode="layer"
     id="layer1"
     transform="translate(27.394842,-122.58483)">
    <flowRoot
       xml:space="preserve"
       id="flowRoot6932"
       style="font-style:normal;font-variant:normal;font-weight:normal;font-stretch:normal;font-size:47.79849243px;line-height:0.69999999;font-family:'Amatic SC';-inkscape-font-specification:'Amatic SC';letter-spacing:0px;word-spacing:0px;fill:#000000;fill-opacity:1;stroke:none;stroke-width:0.42599756"
       transform="translate(-96.831517,54.651454)"><flowRegion
         id="flowRegion6934"
         style="font-style:normal;font-variant:normal;font-weight:normal;font-stretch:normal;line-height:0.69999999;font-family:'Amatic SC';-inkscape-font-specification:'Amatic SC';fill:#ffffff;fill-opacity:1;stroke-width:0.42599756"><rect
           id="rect6936"
           width="295.68454"
           height="63.984482"
           x="335.58386"
           y="232.95636"
           style="font-style:normal;font-variant:normal;font-weight:normal;font-stretch:normal;font-size:47.79849243px;line-height:0.69999999;font-family:'Amatic SC';-inkscape-font-specification:'Amatic SC';fill:#000000;fill-opacity:1;stroke-width:0.42599756" /></flowRegion><flowPara
         id="flowPara6938"
         style="font-size:47.79849243px;line-height:0.69999999;fill:#000000;fill-opacity:1;stroke-width:0.42599756">Erfrischung pur</flowPara></flowRoot>    <g
       id="g6848"
       transform="matrix(2.9001473,0,0,2.9001473,-65.490919,-211.30232)">
      <circle
         id="circle6850"
         cy="174.39998"
         cx="61.899399"
         r="4.119072"
         style="fill:none" />
      <path
         style="fill-rule:evenodd"
         inkscape:connector-curvature="0"
         d="m 30.427767,180.1445 c 0,0 3.490627,-3.07323 4.950729,-3.36651 1.460057,-0.29318 1.836431,-0.23614 3.08936,0.0792 1.252838,0.31535 4.158727,2.85165 4.158727,2.85165 0,0 -1.048397,-2.38429 -1.901091,-3.01005 -0.852694,-0.6258 -1.715894,-1.67996 -3.08936,-1.74266 -1.373375,-0.0627 -3.671652,1.0962 -4.990384,1.94067 -1.318729,0.84448 -2.217935,3.24776 -2.217935,3.24776 z"
         id="path6852" />
      <ellipse
         style="stroke-width:0.83792746"
         ry="1.2011348"
         rx="1.9183202"
         cx="36.828739"
         cy="177.53784"
         id="ellipse6854" />
      <path
         id="path6856"
         d="m 32.338875,182.35358 c 0.845276,0.95871 2.004934,1.67604 3.297944,2.00247 0.444328,0.11218 0.902837,0.17781 1.366207,0.19629 0.882581,-0.0719 1.741862,-0.31494 2.514459,-0.71099 0.622107,-0.35665 1.174692,-0.80965 1.633693,-1.32933 -0.557939,0.41189 -1.173953,0.72459 -1.812032,0.92823 -0.757856,0.28438 -1.564307,0.41186 -2.355612,0.3852 -0.412422,0.0422 -0.832014,0.0425 -1.249859,-0.002 -1.217104,-0.12925 -2.42193,-0.63889 -3.394733,-1.46992 z"
         inkscape:connector-curvature="0"
         style="fill-rule:evenodd" />
      <path
         style="fill-rule:evenodd"
         inkscape:connector-curvature="0"
         d="m 66.653644,181.26472 c 0,0 -3.539915,-3.04701 -5.000017,-3.34006 -1.46006,-0.29319 -2.272043,-0.0497 -3.524905,0.26565 -1.252838,0.31534 -3.673669,2.6388 -3.673669,2.6388 0,0 0.5395,-2.33589 1.392171,-2.96165 0.852694,-0.6258 3.017667,-1.97245 4.391064,-2.03514 1.373375,-0.0627 0.712037,-0.29675 3.497345,1.34461 2.785308,1.64135 2.917966,4.08793 2.917966,4.08793 z"
         id="path6858" />
      <ellipse
         style="stroke-width:0.83792746"
         cx="-60.626827"
         cy="178.47382"
         ry="1.2011348"
         transform="scale(-1,1)"
         rx="1.9183202"
         id="ellipse6860" />
      <path
         style="fill-rule:evenodd"
         inkscape:connector-curvature="0"
         d="m 55.899472,183.0078 c 0.821665,1.13288 2.03377,2.01051 3.418259,2.43761 0.329033,0.1015 0.666938,0.17728 1.009839,0.22709 1.108933,0.064 2.223536,-0.14351 3.216616,-0.59959 0.635753,-0.32086 1.211885,-0.74045 1.702476,-1.23337 -0.558769,0.41421 -1.177514,0.73305 -1.82245,0.94496 -0.975426,0.36279 -2.03218,0.47464 -3.045224,0.33987 -0.318368,-0.0121 -0.63696,-0.0486 -0.951967,-0.1102 -1.326416,-0.25942 -2.58974,-0.96577 -3.527369,-2.00637 z"
         id="path6862" />
      <path
         style="fill-rule:evenodd"
         inkscape:connector-curvature="0"
         d="m 42.344735,191.40725 c -1.368983,0.38928 -2.947539,3.28294 -3.192645,4.4809 -0.245149,1.19795 -0.312432,1.1807 0.392079,1.79237 0.704511,0.61166 1.326394,0.13926 3.752758,0.28005 2.426364,0.14078 8.428135,1.21218 10.810183,0.44809 2.382049,-0.76408 3.110196,-0.70247 3.304668,-2.57652 0.194465,-1.87404 -3.170466,-4.81674 -4.592928,-5.43309 -1.422486,-0.61637 -1.515151,-0.33934 -2.184441,0.11202 -0.66929,0.45136 -0.10776,1.81615 -1.120226,2.40849 -1.012473,0.59233 -3.16688,-0.0455 -4.368883,-0.33607 -1.201935,-0.29057 -1.431583,-1.56552 -2.800565,-1.17624 z"
         id="path6864" />
      <path
         style="fill-rule:evenodd"
         inkscape:connector-curvature="0"
         d="m 45.127377,192.5342 c -0.50762,-0.64781 -0.836943,-1.44854 -0.929855,-2.28437 -0.09287,-0.83555 0.05118,-1.7076 0.419413,-2.48332 0.494804,-1.03403 1.015909,-1.43601 1.642498,-2.58099 0.319577,-0.60865 0.542571,-1.27003 0.625018,-1.95157 0.06972,-0.60175 0.02657,-1.22062 0.02034,-1.78293 0.02595,-1.30269 0.244143,-2.66816 0.128533,-4.00011 -0.07915,-0.74963 -0.263477,-1.48347 -0.543423,-2.17371 0.219973,0.71166 0.338285,1.44993 0.352759,2.18572 0.05146,1.32648 -0.227427,2.61282 -0.319577,3.97143 -0.0592,0.60232 -0.07842,1.15679 -0.203748,1.70462 -0.131995,0.59224 -0.386029,1.1546 -0.719251,1.66054 -0.402587,0.63821 -1.385004,1.72732 -1.830204,2.52588 -0.506478,0.90322 -0.760364,1.9554 -0.715534,3.00804 0.04483,1.05227 0.387711,2.09795 0.989251,2.9845 z"
         id="path6866" />
      <path
         inkscape:connector-curvature="0"
         d="m 68.712621,176.23267 c -1.84824,-0.1317 -3.269494,-3.74089 -5.159316,-3.81773 -2.298926,-0.41886 -4.660589,0.2812 -6.275955,1.74945 -1.10945,1.00834 -4.740348,1.57887 -3.718703,-0.81333 0.762784,-1.89074 2.947539,-3.42184 4.518545,-4.24767 1.721094,-0.7769 3.640063,-0.78869 5.489332,-0.60026 2.716997,0.20284 5.664536,3.701 6.574832,6.34899 0.311625,0.99373 -0.257674,2.266 -1.428982,1.38061 z"
         id="path6868" />
      <path
         inkscape:connector-curvature="0"
         style="fill:#000000;fill-opacity:0.09389672"
         d="m 64.581887,118.44749 a 15.140306,3.3145252 0 0 1 -15.143142,3.30926 15.140306,3.3145252 0 0 1 -15.138916,-3.30503 l 4.201028,37.31053 a 10.941921,3.7626159 0 0 0 10.937888,3.76149 10.941921,3.7626159 0 0 0 10.942114,-3.76149 z"
         id="path6870" />
      <path
         inkscape:connector-curvature="0"
         style="fill:#000000;fill-opacity:0.06572768"
         d="m 64.58055,118.44244 a 15.140307,3.3145252 0 0 1 -15.140306,3.31452 15.140307,3.3145252 0 0 1 -15.140307,-3.31452 15.140307,3.3145252 0 0 1 15.140307,-3.31453 15.140307,3.3145252 0 0 1 15.140306,3.31453 z"
         id="path6872" />
      <path
         style="fill-rule:evenodd;stroke:none;stroke-width:0;stroke-miterlimit:4;stroke-dasharray:none"
         inkscape:connector-curvature="0"
         d="m 29.946254,165.3934 c -1.43327,0.94449 -2.706593,2.31789 -3.353508,3.9078 -1.209672,2.97299 -0.61245,9.60952 -0.61245,9.60952 0,0 -2.078117,-3.49 -3.784348,-4.4036 -1.807851,-0.96801 -4.310556,0.23994 -6.106131,-0.75065 -1.321457,-0.72903 -2.572089,-2.02603 -2.863968,-3.50675 -0.514997,-2.61261 1.305074,-5.18326 2.327158,-7.64219 0.961891,-2.31411 1.932195,-4.7144 3.553357,-6.62547 1.881053,-2.21744 4.141273,-4.44047 6.912468,-5.3213 2.984601,-0.94866 8.179462,-1.17262 9.387496,0.38092 0.487596,0.62706 -0.492966,2.33142 -0.492966,2.33142 0,0 -0.596888,3.59044 0.228929,5.06499 1.058019,1.88917 5.53382,2.43219 5.379773,3.64051 -0.218711,1.71554 -7.490999,1.28198 -10.57581,3.3148 z"
         id="path6874"
         sodipodi:nodetypes="sscssssssscsss" />
      <path
         id="path6876"
         d="m 29.603281,176.68076 c 1.671937,-1.29167 4.485386,-6.144 6.363558,-6.36625 2.32066,-0.27466 4.688594,0.98134 6.303961,2.44971 1.10945,1.00834 4.824367,2.41902 3.802719,0.0268 -0.762784,-1.89074 -2.947538,-3.42184 -4.518545,-4.24767 -1.721091,-0.7769 -3.640062,-0.78869 -5.489331,-0.60027 -2.716998,0.20284 -6.252654,4.42915 -7.16295,7.07715 -0.311625,0.99372 -0.461154,2.55837 0.700835,1.66066 z"
         inkscape:connector-curvature="0" />
      <path
         style="fill:#d2e45b;fill-opacity:1"
         inkscape:connector-curvature="0"
         d="m 35.147953,125.9773 3.350372,29.78458 c 0.232292,2.06493 4.899197,3.76239 10.941923,3.76239 6.042724,0 10.941473,-1.68444 10.941921,-3.76239 l 3.36023,-29.86972 c -8.505204,1.58902 -21.121641,4.84633 -28.594894,0.0851 z"
         id="path6878"
         sodipodi:nodetypes="csscccc" />
      <ellipse
         style="fill:#bfdb58;fill-opacity:1"
         cx="49.440243"
         cy="125.88969"
         ry="3.5945821"
         rx="14.302152"
         id="ellipse6880" />
      <path
         id="path6882"
         d="m 69.745283,164.4368 c 2.372564,2.30787 3.296251,5.84694 4.032815,9.07383 0.814726,3.56932 0.336068,10.97822 0.336068,10.97822 0,0 1.223055,-3.43226 2.352475,-4.81698 1.430367,-1.7537 3.82693,-2.49607 5.377086,-4.14483 2.007663,-2.13537 3.919379,-4.52989 4.928996,-7.28147 0.595168,-1.62205 1.150411,-3.52921 0.560113,-5.15304 -1.167611,-3.21195 -4.706012,-4.99227 -7.394837,-7.10179 -2.115724,-1.6599 -4.239705,-3.53853 -6.812319,-4.32161 -3.402841,-1.0358 -9.907704,-1.41599 -10.667467,-0.27361 -0.938648,1.41136 2.180974,2.94521 2.085726,4.63752 -0.109608,1.94743 -3.602139,3.1837 -2.983835,5.03362 0.93533,2.79844 6.070146,1.31278 8.185179,3.37014 z"
         inkscape:connector-curvature="0"
         style="fill-rule:evenodd"
         sodipodi:nodetypes="sscssssssssss" />
      <ellipse
         style="fill:#ffffff;stroke-width:0.81793648"
         cx="60.148933"
         cy="179.04176"
         ry="0.52113998"
         rx="0.42951256"
         id="ellipse6884" />
      <ellipse
         id="ellipse6886"
         rx="0.42951256"
         ry="0.52113998"
         cy="178.04318"
         cx="36.148293"
         style="fill:#ffffff;stroke-width:0.81793648" />
    </g>
    <g
       id="g6920"
       transform="matrix(1.1247449,0,0,1.1247449,1750.8482,-15401.318)">
      <flowRoot
         transform="translate(12.889923,1049.5273)"
         xml:space="preserve"
         id="flowRoot6890"
         style="font-style:normal;font-variant:normal;font-weight:normal;font-stretch:normal;font-size:75.1214447px;line-height:1;font-family:'Amatic SC';-inkscape-font-specification:'Amatic SC';text-align:end;letter-spacing:0px;word-spacing:0px;text-anchor:end;fill:#000000;fill-opacity:1;stroke:none;stroke-width:0.35281518"><flowRegion
           id="flowRegion6892"
           style="font-style:normal;font-variant:normal;font-weight:normal;font-stretch:normal;line-height:1;font-family:'Amatic SC';-inkscape-font-specification:'Amatic SC';text-align:end;text-anchor:end;fill:#ffffff;fill-opacity:1;stroke-width:0.35281518"><rect
             id="rect6894"
             width="491.33441"
             height="224.74432"
             x="-1536.0526"
             y="12739.874"
             style="font-style:normal;font-variant:normal;font-weight:normal;font-stretch:normal;line-height:1;font-family:'Amatic SC';-inkscape-font-specification:'Amatic SC';text-align:end;text-anchor:end;fill:#000000;fill-opacity:1;stroke-width:0.35281518" /></flowRegion><flowPara
           id="flowPara6896"
           style="font-style:normal;font-variant:normal;font-weight:normal;font-stretch:normal;font-family:'Amatic SC';-inkscape-font-specification:'Amatic SC';text-align:end;text-anchor:end;fill:#000000;fill-opacity:1;stroke-width:0.35281518" /><flowPara
           id="flowPara6898"
           style="font-style:normal;font-variant:normal;font-weight:normal;font-stretch:normal;font-family:'Amatic SC';-inkscape-font-specification:'Amatic SC';text-align:end;text-anchor:end;fill:#000000;fill-opacity:1;stroke-width:0.35281518">Zuckerrohrsaft</flowPara></flowRoot>      <flowRoot
         transform="translate(-143.93822,1049.5273)"
         style="font-style:normal;font-variant:normal;font-weight:normal;font-stretch:normal;font-size:75.1214447px;line-height:1;font-family:'Amatic SC';-inkscape-font-specification:'Amatic SC';text-align:end;letter-spacing:0px;word-spacing:0px;text-anchor:end;fill:#000000;fill-opacity:1;stroke:none;stroke-width:0.35281518"
         id="flowRoot6900"
         xml:space="preserve"><flowRegion
           style="font-style:normal;font-variant:normal;font-weight:normal;font-stretch:normal;line-height:1;font-family:'Amatic SC';-inkscape-font-specification:'Amatic SC';text-align:end;text-anchor:end;fill:#ffffff;fill-opacity:1;stroke-width:0.35281518"
           id="flowRegion6902"><rect
             style="font-style:normal;font-variant:normal;font-weight:normal;font-stretch:normal;line-height:1;font-family:'Amatic SC';-inkscape-font-specification:'Amatic SC';text-align:end;text-anchor:end;fill:#000000;fill-opacity:1;stroke-width:0.35281518"
             y="12674.403"
             x="-1538.7106"
             height="224.74432"
             width="491.33441"
             id="rect6904" /></flowRegion><flowPara
           style="font-style:normal;font-variant:normal;font-weight:normal;font-stretch:normal;font-family:'Amatic SC';-inkscape-font-specification:'Amatic SC';text-align:end;text-anchor:end;fill:#000000;fill-opacity:1;stroke-width:0.35281518"
           id="flowPara6906" /><flowPara
           style="font-style:normal;font-variant:normal;font-weight:normal;font-stretch:normal;font-family:'Amatic SC';-inkscape-font-specification:'Amatic SC';text-align:end;text-anchor:end;fill:#000000;fill-opacity:1;stroke-width:0.35281518"
           id="flowPara6908">Maxims</flowPara></flowRoot>    </g>
    <g
       transform="translate(-96.831517,54.651454)"
       style="font-style:normal;font-variant:normal;font-weight:normal;font-stretch:normal;font-size:47.79849243px;line-height:0.69999999;font-family:'Amatic SC';-inkscape-font-specification:'Amatic SC';letter-spacing:0px;word-spacing:0px;fill:#000000;fill-opacity:1;stroke:none;stroke-width:0.42599756"
       id="flowRoot6201">
      <path
         d="m 341.022,260.20382 q -1.12028,0 -1.58706,-0.21005 -0.46679,-0.18672 -0.46679,-0.84021 l 0,-0.88689 q -0.0233,-0.39676 -0.0233,-0.88688 l 0,-0.0934 0.0467,-6.97839 -0.0467,-19.72155 q 0,-2.33391 -0.0934,-5.32132 0,-0.58347 0.23339,-0.9569 0.23339,-0.37343 0.63016,-0.37343 l 2.96406,0 q 0.30341,0 0.51346,0.0233 0.23339,0 0.46679,0.07 0.49012,0.16337 0.49012,0.81687 0,0.37342 -0.30341,0.63016 -0.30341,0.23339 -0.63016,0.25673 -0.21005,0.0233 -0.79353,0.0233 l -0.77019,-0.0467 -0.77019,-0.0467 q -0.35008,0 -0.46678,0.11669 -0.0934,0.0934 -0.0934,0.44345 0,2.26389 0.0233,4.061 l 0,4.06101 0,5.97481 q 0,0.0933 0.0934,0.0933 l 0.0467,0 0.0467,0 q 1.61039,-0.0933 2.59064,-0.0933 0.79353,0 0.79353,0.70017 0,0.44344 -0.16338,0.63016 -0.16337,0.16337 -0.56014,0.16337 l -2.73067,0 q -0.18671,0 -0.18671,0.23339 0,2.73068 0.0933,7.09509 0.0934,4.38775 0.0934,7.58521 l 0,1.77377 2.0305,-0.0233 2.0305,0 0.42011,0 q 0.88688,0 0.88688,0.63016 0,0.74685 -0.44344,0.91022 -0.49012,0.18672 -2.33391,0.18672 l -2.0305,0 z"
         style="font-size:47.79849243px;line-height:0.69999999;fill:#000000;fill-opacity:1;stroke-width:0.42599756"
         id="path6343" />
      <path
         d="m 358.17624,260.50723 q -0.56014,-0.63016 -1.23697,-3.29082 -0.6535,-2.684 -1.21364,-6.04483 -0.46678,-2.82403 -1.09693,-5.39133 -0.58348,-2.40393 -1.09694,-2.40393 l -0.18671,0 q -1.05026,0 -1.05026,0.67683 0,2.59065 0.4201,10.47926 0.16337,4.22438 0.39676,5.01791 l -0.35008,0.79353 -0.70018,0 -0.35008,-0.37342 q -0.77019,-20.67845 -0.77019,-30.10745 0,-0.58348 0.0467,-0.88689 0.07,-0.30341 0.3034,-0.60682 0.25673,-0.32674 0.70018,-0.32674 2.40393,0 3.87429,1.21363 1.4937,1.21363 1.4937,3.43085 l 0,3.47753 q 0,0.88688 -0.58348,2.38059 -0.56013,1.4937 -1.28365,2.87071 -0.63015,1.14361 -0.63015,1.21363 0,0.16337 1.82045,7.63189 1.82045,7.46851 1.96048,7.84194 0,0.0233 0.07,0.18671 0.07,0.14004 0.32675,0.63016 0.37342,0.72351 0.37342,1.14361 0,0.67684 -0.5368,0.67684 l -0.70017,-0.23339 z m -5.60138,-18.3212 q 0.88688,0 1.61039,-0.91023 0.74685,-0.93356 1.12028,-2.33391 0.37343,-1.33033 0.56014,-2.5673 0.21005,-1.23697 0.21005,-2.07718 0,-1.09694 -0.11669,-1.82045 -0.0934,-0.72351 -0.37343,-1.51704 -0.30341,-0.81687 -1.00358,-1.23698 -0.67684,-0.44344 -1.7271,-0.44344 -0.25673,0 -0.4201,0.4201 -0.14003,0.39677 -0.14003,0.81687 0,2.35725 0.0934,5.7881 0.0934,3.43085 0.0934,5.7881 l 0.0934,0.0934 z"
         style="font-size:47.79849243px;line-height:0.69999999;fill:#000000;fill-opacity:1;stroke-width:0.42599756"
         id="path6345" />
      <path
         d="m 364.75787,259.87707 q 0.44344,-4.45777 0.44344,-11.62288 0,-2.96406 0.32675,-9.63905 0.32675,-6.65164 0.32675,-9.61571 0,-0.4201 0.39676,-0.65349 0.39677,-0.25673 0.91023,-0.25673 1.00358,0 2.35725,0.16337 1.37701,0.16337 2.35725,0.49012 1.00358,0.30341 1.00358,0.72351 0,0.81687 -1.70376,0.81687 -0.88688,-0.46678 -2.63731,-0.46678 -0.35009,0 -0.58348,0.0467 -0.16338,0.0467 -0.21005,0.11669 -0.0467,0.07 -0.1167,0.32675 -0.0467,0.18671 -0.18671,0.51346 0,1.89047 -0.23339,5.06459 -0.23339,3.19745 -0.23339,5.01791 l 0,1.68041 q 0,0.16337 0.79352,0.14004 2.40393,0 2.40393,0.74685 0,0.37342 -0.37342,0.65349 -0.35009,0.25673 -0.77019,0.25673 -0.25673,0 -0.79353,-0.14003 -0.51346,-0.14004 -0.79353,-0.14004 -0.86355,0 -0.86355,2.33391 l 0,5.41468 q 0,1.12027 0.14003,3.40751 0.14004,2.26389 0.14004,3.43085 0,1.9138 -1.14362,1.9138 l -0.9569,-0.72351 z"
         style="font-size:47.79849243px;line-height:0.69999999;fill:#000000;fill-opacity:1;stroke-width:0.42599756"
         id="path6347" />
      <path
         d="m 385.06289,260.50723 q -0.56013,-0.63016 -1.23697,-3.29082 -0.65349,-2.684 -1.21363,-6.04483 -0.46678,-2.82403 -1.09694,-5.39133 -0.58348,-2.40393 -1.09694,-2.40393 l -0.18671,0 q -1.05026,0 -1.05026,0.67683 0,2.59065 0.4201,10.47926 0.16338,4.22438 0.39677,5.01791 l -0.35009,0.79353 -0.70017,0 -0.35009,-0.37342 q -0.77019,-20.67845 -0.77019,-30.10745 0,-0.58348 0.0467,-0.88689 0.07,-0.30341 0.30341,-0.60682 0.25673,-0.32674 0.70017,-0.32674 2.40393,0 3.87429,1.21363 1.49371,1.21363 1.49371,3.43085 l 0,3.47753 q 0,0.88688 -0.58348,2.38059 -0.56014,1.4937 -1.28365,2.87071 -0.63016,1.14361 -0.63016,1.21363 0,0.16337 1.82045,7.63189 1.82045,7.46851 1.96049,7.84194 0,0.0233 0.07,0.18671 0.07,0.14004 0.32675,0.63016 0.37343,0.72351 0.37343,1.14361 0,0.67684 -0.5368,0.67684 l -0.70018,-0.23339 z m -5.60138,-18.3212 q 0.88688,0 1.6104,-0.91023 0.74685,-0.93356 1.12027,-2.33391 0.37343,-1.33033 0.56014,-2.5673 0.21005,-1.23697 0.21005,-2.07718 0,-1.09694 -0.11669,-1.82045 -0.0934,-0.72351 -0.37343,-1.51704 -0.30341,-0.81687 -1.00358,-1.23698 -0.67683,-0.44344 -1.72709,-0.44344 -0.25673,0 -0.42011,0.4201 -0.14003,0.39677 -0.14003,0.81687 0,2.35725 0.0934,5.7881 0.0933,3.43085 0.0933,5.7881 l 0.0934,0.0934 z"
         style="font-size:47.79849243px;line-height:0.69999999;fill:#000000;fill-opacity:1;stroke-width:0.42599756"
         id="path6349" />
      <path
         d="m 394.18848,259.92375 q -1.12027,0 -1.30699,-0.46678 -0.23339,0 -0.39676,0.0233 -0.18671,0.0233 -0.39677,0.0233 -1.02692,0 -1.30699,-0.49012 0,-0.18671 0.07,-0.30341 0.07,-0.11669 0.28007,-0.25673 l 0.28007,-0.25673 1.37701,0 0.18671,-0.18671 q 0,-0.0934 0.0934,-0.44344 0.07,-0.39677 0.07,-0.56014 0,-1.98382 -0.16337,-5.22796 -0.18671,-3.68758 -0.18671,-5.22796 0,-1.44703 0.11669,-5.60139 0.1167,-4.13102 0.1167,-5.5547 0,-3.36084 -0.23339,-5.53137 -0.44345,-0.14004 -1.42369,-0.14004 l -0.56014,0.0467 -0.58348,0.0467 q -0.91022,0 -0.91022,-0.81687 0,-0.18671 0.4201,-0.37343 0.42011,-0.21005 0.72352,-0.21005 1.56372,0 3.61756,0.18672 1.23697,0.0934 2.19387,0.44344 0.84021,0.30341 0.84021,0.81687 0,0.0934 -0.11669,0.37342 l -1.09694,0.0934 q -0.37343,-0.28007 -1.37701,-0.28007 l -0.23339,0.14003 q 0.14003,0.42011 0.14003,2.54397 0,1.89047 -0.07,5.6714 -0.07,3.80428 -0.07,5.69474 0,1.98383 0.16337,5.22796 0.16338,3.26748 0.16338,5.2513 l -0.0233,0.60682 q -0.0233,0.35009 -0.0233,0.86355 0,1.12027 0.14003,1.33033 l -0.0467,0.11669 q 0,0.46678 1.05026,0.46678 0.39677,0 0.70018,-0.0233 0.30341,-0.0233 0.70017,-0.0233 1.42369,0 1.42369,0.67684 0,0.4201 -0.30341,0.70017 -0.30341,0.25673 -0.74685,0.25673 -0.32675,0 -0.79353,-0.0933 -0.51346,-0.07 -0.79353,-0.07 -0.32675,0 -0.88689,0.25673 -0.51346,0.28007 -0.81687,0.28007 z"
         style="font-size:47.79849243px;line-height:0.69999999;fill:#000000;fill-opacity:1;stroke-width:0.42599756"
         id="path6351" />
      <path
         d="m 403.43077,260.50723 q -0.56014,-0.0934 -1.02692,-0.42011 -0.44345,-0.30341 -0.51346,-0.74685 l 0.23339,-0.37343 q 0.37342,0.0467 0.84021,0.16338 0.56014,0.16337 0.88688,0.16337 1.0736,0 1.86713,-0.81687 0.81687,-0.8402 1.21363,-2.19387 0.70018,-2.38059 0.70018,-4.66782 0,-1.77378 -0.56014,-3.59423 -0.56014,-1.82045 -1.47036,-3.47752 l -0.56014,-1.00359 q -1.00358,-1.82045 -1.56372,-2.94072 -0.56014,-1.12028 -0.98025,-2.49729 -0.60681,-1.89047 -0.60681,-3.80427 0,-0.86355 0.21005,-1.91381 0.23339,-1.0736 0.65349,-2.12386 0.44345,-1.12027 1.21364,-1.79711 0.77019,-0.70017 1.70375,-0.70017 0.58348,0 1.1903,0.4201 0.63015,0.42011 0.63015,0.91023 0,0.37342 -0.63015,0.37342 -0.16338,0 -0.49012,-0.14003 -0.30341,-0.14004 -0.51346,-0.14004 -0.72352,0 -1.28366,0.58348 -0.56013,0.56014 -0.86354,1.4937 -0.58348,1.75044 -0.58348,3.2208 0,0.93357 0.23339,1.86713 l 0.16338,0.79353 q 0.0233,0.21005 0.28006,0.9569 l 0.2334,0.84021 0.35008,0.86355 0.84021,1.47036 0.37343,0.63016 q 0.65349,1.09694 1.09693,1.89046 0.44345,0.79353 0.88689,1.75044 0.46678,1.02692 0.70017,1.89047 0.23339,0.86354 0.42011,2.12385 0.16337,1.14362 0.16337,2.61398 0,2.40393 -0.65349,4.2944 -0.42011,1.19029 -1.00359,2.0305 -0.56013,0.81687 -1.44702,1.33033 -0.93356,0.56014 -2.10052,0.56014 l -0.23339,0.1167 z m 3.80427,-31.18105 q 0,-0.0467 -0.0467,-0.0467 l 0,0.0467 0.0467,0 z"
         style="font-size:47.79849243px;line-height:0.69999999;fill:#000000;fill-opacity:1;stroke-width:0.42599756"
         id="path6353" />
      <path
         d="m 419.3247,260.69394 q -0.30341,-0.18671 -1.12028,-0.42011 -0.91022,-0.28006 -1.56372,-0.81686 -0.65349,-0.5368 -1.23697,-1.6104 -0.98024,-1.86713 -1.19029,-5.46135 -0.0934,-1.09694 -0.0934,-2.87071 l 0,-5.46136 q 0,-1.86712 0.0233,-2.91738 0.0467,-1.0736 0.18671,-3.08077 0.14004,-2.19387 0.4201,-3.66424 0.30341,-1.47036 0.91023,-2.94072 0.60682,-1.51705 1.47036,-2.17054 0.44345,-0.32675 1.30699,-0.67683 0.74685,-0.28007 1.1903,-0.51346 l 1.9138,0 0.14004,0.0233 q 0.0467,0.0233 0.11669,0.0233 0.21006,0.07 0.25674,0.07 0.18671,0.0934 0.21005,0.1167 0.11669,0.11669 0.14003,0.18671 0.0467,0.18671 0.0467,0.30341 l -0.63016,0.70017 -2.00716,0 q -0.93356,0 -1.65708,0.88689 -0.72351,0.86354 -1.14361,2.21721 -0.35009,1.16696 -0.60682,2.8007 -0.23339,1.63373 -0.30341,2.87071 -0.07,1.12027 -0.07,2.07718 l -0.0934,0.25673 q 0,1.96048 -0.0934,4.83119 -0.0933,2.87071 -0.0933,4.80786 0,1.12027 0.0467,1.96048 0.07,0.84021 0.21006,1.91381 0.14003,1.05026 0.49012,1.86713 0.35008,0.79353 0.91022,1.58706 0.5368,0.74685 1.40035,1.14361 0.86355,0.37343 2.00716,0.37343 0.70018,0 1.1903,-0.4201 0.72351,0 0.72351,0.51346 0,0.35008 -0.60682,0.79353 -0.60681,0.46678 -1.21363,0.70017 l -1.58706,0 z"
         style="font-size:47.79849243px;line-height:0.69999999;fill:#000000;fill-opacity:1;stroke-width:0.42599756"
         id="path6355" />
      <path
         d="m 436.89905,260.46055 q -0.0233,-0.49012 -1.47036,-0.49012 -0.23339,-10.10584 -0.23339,-12.81317 l -0.1167,-0.18672 0.16338,-0.4201 q 0,-0.81687 -0.16338,-1.77377 l -0.74685,-0.18672 q -0.4201,0.14004 -0.9569,0.14004 -0.46679,0 -1.54038,-0.25673 -0.95691,-0.23339 -1.51705,-0.23339 l -0.49012,0.18671 q 0,1.00358 -0.07,3.01075 -0.07,1.98382 -0.07,3.01074 l 0.14003,0.21005 q 0,1.33033 0.14004,3.99099 0.14003,2.66066 0.14003,3.99099 0,0.51346 -0.21005,0.88688 -0.18671,0.35009 -0.58348,0.35009 -1.05026,0 -1.05026,-2.87071 l 0.0467,-4.38775 0.0467,-4.36442 q 0,-4.36441 -0.14004,-4.66782 0.23339,-0.44344 0.23339,-3.17412 0,-2.10052 -0.16337,-5.60138 -0.18671,-3.96765 -0.18671,-5.57805 0,-0.35009 0.23339,-0.63015 0.25673,-0.28007 0.58348,-0.28007 0.9569,0 0.9569,2.77735 0,2.40393 -0.0934,5.88146 -0.0933,3.5242 -0.0933,5.78809 0,0.56014 3.66424,0.56014 l 0.16337,0 q 0.93357,0 1.33033,-0.35008 0.39677,-0.35009 0.39677,-1.21364 0,-2.35725 -0.30341,-6.60497 -0.32675,-4.52778 -0.32675,-6.58162 0,-0.28007 0.25673,-0.49012 0.25673,-0.2334 0.56014,-0.2334 0.0233,0 0.44344,0.1167 l 0.42011,0.16337 q 0,4.01433 0.3034,11.1561 0.30341,7.18844 0.30341,11.15609 0,5.53137 0.30341,9.47568 l -0.30341,0.5368 z m -3.01074,-17.69105 0,-0.0933 0.0933,0.0933 -0.0933,0 z"
         style="font-size:47.79849243px;line-height:0.69999999;fill:#000000;fill-opacity:1;stroke-width:0.42599756"
         id="path6357" />
      <path
         d="m 448.96537,260.64726 q -0.77019,-0.0233 -1.65708,-0.51346 -0.88689,-0.49012 -1.44703,-1.16696 -0.65349,-0.8402 -1.05026,-4.83119 -0.39676,-3.99099 -0.46678,-9.07891 l -0.0233,-1.54038 q -0.0933,-6.39492 -0.18671,-9.75575 -0.07,-3.36083 -0.23339,-4.62114 l 0.30341,-0.67684 q 1.09694,0.14004 1.09694,2.63732 l 0.14003,12.67314 q 0,1.51704 0.25673,5.06458 0.25673,3.54755 0.25673,5.06459 0,5.43801 3.59422,5.43801 2.21722,0 2.8007,-10.01248 l 0.07,-0.98024 q 0.32675,-11.69289 0.32675,-19.44148 l -0.0467,-0.44344 -0.0467,-0.4201 q 0,-0.5368 0.81686,-0.5368 0.56014,0 0.70018,0.30341 0.11669,0.35008 0.11669,1.65707 0,3.73426 -0.30341,4.87788 0.0467,0.14003 0.0467,0.3034 0,0.46679 -0.11669,1.91381 -0.1167,1.44703 -0.1167,1.89047 0,0.25673 0.0233,0.46678 0.0233,0.21005 0.0233,0.49012 -0.07,0.88689 -0.1167,3.26748 -0.07,4.69116 -0.21005,7.88862 -0.16337,4.13102 -1.14361,7.02507 -0.49013,1.47036 -1.37701,2.26389 -0.86355,0.79353 -2.0305,0.79353 z"
         style="font-size:47.79849243px;line-height:0.69999999;fill:#000000;fill-opacity:1;stroke-width:0.42599756"
         id="path6359" />
      <path
         d="m 473.68148,260.11046 q -0.35008,0 -0.5368,-0.28007 -0.18671,-0.30341 -0.30341,-0.86355 -0.0933,-0.49012 -0.21005,-0.67683 l 0.0467,-0.14003 q -0.32675,-2.10052 -1.58706,-5.48469 -0.65349,-1.77378 -0.88688,-2.49729 -0.16338,-0.18671 -1.28366,-3.57088 -4.29439,-13.32663 -5.41467,-14.40023 -0.37342,1.42368 -0.37342,3.36083 l 0.0467,1.89047 0.0467,1.86713 -0.0467,1.16695 -0.0467,1.14362 q 0,0.77019 0.0933,1.79711 l 0.0934,1.54038 -0.14004,0 q 0,7.9353 0.32675,8.79884 l 0,4.2944 q 0.18671,0.32675 0.18671,1.00358 0,0.37343 -0.25673,0.67684 -0.23339,0.28006 -0.63015,0.28006 -1.00358,0 -1.00358,-2.5673 0,-0.63015 0.0934,-1.56372 0.0934,-0.91022 0.0934,-1.56372 0,-2.31057 -0.14004,-6.88503 -0.16337,-4.24772 -0.16337,-6.8617 0,-1.6104 0.16337,-4.24772 0.14004,-2.84737 0.14004,-4.22438 l 0,-0.60682 q 0,-2.35724 0.86355,-3.08076 l 0.14003,0.16338 0.46678,-0.1167 q 0.23339,0.0934 0.44345,0.30341 0.11669,0.16337 0.21005,0.4201 l 0.07,0.28007 0.0467,0.25673 q 0.81687,3.43085 3.43085,9.49902 2.54397,5.90479 3.40751,8.56545 0.32675,1.00358 0.77019,2.94073 0.46678,2.10052 0.95691,3.61756 0.51346,1.4937 1.19029,2.66066 l 0.0934,-0.14004 q 1.09694,-10.54927 1.09694,-26.04644 l -0.0467,-0.58348 -0.0467,-0.60681 q 0,-1.00359 0.67683,-1.00359 0.44345,0 0.74685,0.44345 0.30341,0.4201 0.30341,0.93356 l 0,3.19746 -0.25673,0.39676 q 0,2.61398 -0.25673,8.86887 -0.25673,6.25488 -0.60681,11.48284 -0.35009,5.22796 -0.6535,5.83477 -0.25673,0.0467 -0.81687,0.21006 l 0,0.0233 -0.0233,-0.0233 q -0.4201,0.11669 -0.51346,0.11669 z"
         style="font-size:47.79849243px;line-height:0.69999999;fill:#000000;fill-opacity:1;stroke-width:0.42599756"
         id="path6361" />
      <path
         d="m 489.20198,260.2505 q -2.19387,0 -3.24413,-0.51346 -1.05026,-0.5368 -1.56372,-2.03051 -0.51346,-1.4937 -0.91023,-4.83119 -0.58348,-4.66782 -0.58348,-7.49186 0,-1.42368 0.2334,-3.73425 l 0.25673,-2.98741 0.0467,-0.65349 q 0.21006,-3.19746 0.56014,-5.01791 0.35009,-1.82045 1.42369,-3.12744 1.0736,-1.30699 3.24413,-1.54038 0.46679,-0.0467 0.74686,-0.0467 1.47036,0 1.47036,0.67683 0,0.30341 -0.30341,0.51346 -0.30341,0.21005 -0.65349,0.21005 l -0.44345,-0.0467 -0.46678,-0.0467 q -0.79353,0 -1.44702,0.5368 -0.63016,0.51346 -1.05026,1.4937 -0.49013,1.09694 -0.81687,2.19388 -0.30341,1.09693 -0.49012,2.49728 -0.21006,1.6104 -0.32675,2.75402 -0.0934,1.12027 -0.14004,2.49728 -0.07,1.96049 -0.07,3.68758 0,2.33391 0.14003,3.50087 0.32675,0.51346 0.44344,1.54038 0.1167,1.00358 0.25673,3.01074 0.0934,1.65708 0.42011,2.84737 0.32675,1.16696 1.19029,1.91381 0.95691,0.81687 2.61398,0.81687 0.6535,0 1.16696,-0.39677 0.51346,-0.39676 0.81687,-1.12027 0.32674,-0.84021 0.51346,-1.58706 0.18671,-0.74685 0.25673,-1.75044 0.11669,-1.84379 0.11669,-3.6409 l 0,-2.63732 q -0.49012,-0.49012 -1.68041,-0.49012 l -0.37343,0.0233 q -0.21005,0.0233 -0.5368,0.0233 -1.14361,0 -1.14361,-0.56014 0,-0.81687 1.14361,-0.81687 1.00358,0 2.42727,0.1167 0.91022,0.11669 1.42368,0.30341 0.56014,0.21005 0.56014,0.5368 0,0.5368 -0.25673,1.77377 -0.28007,1.19029 -0.28007,1.79711 0,1.4937 0.0934,3.66424 0.0934,2.17054 0.0934,3.66424 -2.47395,2.47395 -4.87788,2.47395 z"
         style="font-size:47.79849243px;line-height:0.69999999;fill:#000000;fill-opacity:1;stroke-width:0.42599756"
         id="path6363" />
      <path
         d="m 508.69015,260.50723 q -0.5368,-2.94073 -0.5368,-6.88504 0,-1.14362 0.1167,-4.45777 0.0933,-2.63732 0.0933,-4.43443 -0.30341,-0.67684 -0.30341,-1.09694 0.49013,-0.81687 0.49013,-4.41109 0,-8.54211 -0.28007,-9.26563 0.44344,-1.19029 0.70017,-1.19029 l 2.10052,0 q 0.5368,0 1.4937,0.51346 0.95691,0.49012 1.63374,1.05026 1.19029,1.0736 1.19029,5.64806 0,1.12028 -0.0233,1.98383 -0.0233,0.84021 -0.11669,1.72709 -0.0934,0.88689 -0.30341,1.42369 -0.21005,0.5368 -0.65349,1.23697 -0.37343,0.60682 -0.95691,1.02692 -0.56014,0.4201 -1.47036,0.86355 -0.86355,0.4201 -1.98383,0.77019 l 0,5.69474 q 0,1.54038 0.21006,4.66782 0.18671,3.31416 0.18671,4.64448 0,0.86355 -0.91023,0.86355 l -0.67683,-0.37342 z m 1.4937,-17.13091 q 0.72352,0 1.30699,-0.35009 0.60682,-0.35008 1.02692,-0.91022 0.6535,-0.88689 1.05026,-2.89405 0.21006,-1.19029 0.28007,-3.19746 l 0,-1.28365 q 0,-0.86355 -0.0467,-1.37701 -0.0467,-0.51346 -0.21005,-1.12027 -0.18671,-0.6535 -0.49012,-1.05026 -0.30341,-0.39677 -0.86355,-0.67684 -0.56013,-0.28007 -1.35366,-0.28007 -0.60682,0 -0.84021,0.30341 -0.21005,0.28007 -0.21005,0.98024 0,0.91023 0.11669,3.43085 0.1167,2.5673 0.1167,3.45419 0,0.93357 -0.0934,2.26389 -0.0934,1.33033 -0.0934,2.24056 l 0.30341,0.46678 z"
         style="font-size:47.79849243px;line-height:0.69999999;fill:#000000;fill-opacity:1;stroke-width:0.42599756"
         id="path6365" />
      <path
         d="m 525.611,260.64726 q -0.77019,-0.0233 -1.65707,-0.51346 -0.88689,-0.49012 -1.44703,-1.16696 -0.65349,-0.8402 -1.05026,-4.83119 -0.39676,-3.99099 -0.46678,-9.07891 l -0.0233,-1.54038 q -0.0934,-6.39492 -0.18671,-9.75575 -0.07,-3.36083 -0.23339,-4.62114 l 0.30341,-0.67684 q 1.09693,0.14004 1.09693,2.63732 l 0.14004,12.67314 q 0,1.51704 0.25673,5.06458 0.25673,3.54755 0.25673,5.06459 0,5.43801 3.59422,5.43801 2.21722,0 2.80069,-10.01248 l 0.07,-0.98024 q 0.32675,-11.69289 0.32675,-19.44148 l -0.0467,-0.44344 -0.0467,-0.4201 q 0,-0.5368 0.81687,-0.5368 0.56014,0 0.70017,0.30341 0.1167,0.35008 0.1167,1.65707 0,3.73426 -0.30341,4.87788 0.0467,0.14003 0.0467,0.3034 0,0.46679 -0.1167,1.91381 -0.11669,1.44703 -0.11669,1.89047 0,0.25673 0.0233,0.46678 0.0233,0.21005 0.0233,0.49012 -0.07,0.88689 -0.1167,3.26748 -0.07,4.69116 -0.21005,7.88862 -0.16337,4.13102 -1.14362,7.02507 -0.49012,1.47036 -1.377,2.26389 -0.86355,0.79353 -2.03051,0.79353 z"
         style="font-size:47.79849243px;line-height:0.69999999;fill:#000000;fill-opacity:1;stroke-width:0.42599756"
         id="path6367" />
      <path
         d="m 545.44925,260.50723 q -0.56014,-0.63016 -1.23698,-3.29082 -0.65349,-2.684 -1.21363,-6.04483 -0.46678,-2.82403 -1.09694,-5.39133 -0.58348,-2.40393 -1.09694,-2.40393 l -0.18671,0 q -1.05026,0 -1.05026,0.67683 0,2.59065 0.42011,10.47926 0.16337,4.22438 0.39676,5.01791 l -0.35009,0.79353 -0.70017,0 -0.35009,-0.37342 q -0.77019,-20.67845 -0.77019,-30.10745 0,-0.58348 0.0467,-0.88689 0.07,-0.30341 0.30341,-0.60682 0.25673,-0.32674 0.70017,-0.32674 2.40393,0 3.87429,1.21363 1.49371,1.21363 1.49371,3.43085 l 0,3.47753 q 0,0.88688 -0.58348,2.38059 -0.56014,1.4937 -1.28365,2.87071 -0.63016,1.14361 -0.63016,1.21363 0,0.16337 1.82045,7.63189 1.82045,7.46851 1.96049,7.84194 0,0.0233 0.07,0.18671 0.07,0.14004 0.32674,0.63016 0.37343,0.72351 0.37343,1.14361 0,0.67684 -0.5368,0.67684 l -0.70017,-0.23339 z m -5.60139,-18.3212 q 0.88689,0 1.6104,-0.91023 0.74685,-0.93356 1.12028,-2.33391 0.37342,-1.33033 0.56013,-2.5673 0.21006,-1.23697 0.21006,-2.07718 0,-1.09694 -0.1167,-1.82045 -0.0934,-0.72351 -0.37342,-1.51704 -0.30341,-0.81687 -1.00359,-1.23698 -0.67683,-0.44344 -1.72709,-0.44344 -0.25673,0 -0.4201,0.4201 -0.14004,0.39677 -0.14004,0.81687 0,2.35725 0.0934,5.7881 0.0933,3.43085 0.0933,5.7881 l 0.0934,0.0934 z"
         style="font-size:47.79849243px;line-height:0.69999999;fill:#000000;fill-opacity:1;stroke-width:0.42599756"
         id="path6369" />
    </g>
    <g
       transform="matrix(2.9001473,0,0,2.9001473,-65.490919,-211.30232)"
       id="g6209">
      <circle
         style="fill:none"
         r="4.119072"
         cx="61.899399"
         cy="174.39998"
         id="circle6211" />
      <path
         id="path6213"
         d="m 30.427767,180.1445 c 0,0 3.490627,-3.07323 4.950729,-3.36651 1.460057,-0.29318 1.836431,-0.23614 3.08936,0.0792 1.252838,0.31535 4.158727,2.85165 4.158727,2.85165 0,0 -1.048397,-2.38429 -1.901091,-3.01005 -0.852694,-0.6258 -1.715894,-1.67996 -3.08936,-1.74266 -1.373375,-0.0627 -3.671652,1.0962 -4.990384,1.94067 -1.318729,0.84448 -2.217935,3.24776 -2.217935,3.24776 z"
         inkscape:connector-curvature="0"
         style="fill-rule:evenodd" />
      <ellipse
         id="ellipse6215"
         cy="177.53784"
         cx="36.828739"
         rx="1.9183202"
         ry="1.2011348"
         style="stroke-width:0.83792746" />
      <path
         style="fill-rule:evenodd"
         inkscape:connector-curvature="0"
         d="m 32.338875,182.35358 c 0.845276,0.95871 2.004934,1.67604 3.297944,2.00247 0.444328,0.11218 0.902837,0.17781 1.366207,0.19629 0.882581,-0.0719 1.741862,-0.31494 2.514459,-0.71099 0.622107,-0.35665 1.174692,-0.80965 1.633693,-1.32933 -0.557939,0.41189 -1.173953,0.72459 -1.812032,0.92823 -0.757856,0.28438 -1.564307,0.41186 -2.355612,0.3852 -0.412422,0.0422 -0.832014,0.0425 -1.249859,-0.002 -1.217104,-0.12925 -2.42193,-0.63889 -3.394733,-1.46992 z"
         id="path6217" />
      <path
         id="path6219"
         d="m 66.653644,181.26472 c 0,0 -3.539915,-3.04701 -5.000017,-3.34006 -1.46006,-0.29319 -2.272043,-0.0497 -3.524905,0.26565 -1.252838,0.31534 -3.673669,2.6388 -3.673669,2.6388 0,0 0.5395,-2.33589 1.392171,-2.96165 0.852694,-0.6258 3.017667,-1.97245 4.391064,-2.03514 1.373375,-0.0627 0.712037,-0.29675 3.497345,1.34461 2.785308,1.64135 2.917966,4.08793 2.917966,4.08793 z"
         inkscape:connector-curvature="0"
         style="fill-rule:evenodd" />
      <ellipse
         id="ellipse6221"
         rx="1.9183202"
         transform="scale(-1,1)"
         ry="1.2011348"
         cy="178.47382"
         cx="-60.626827"
         style="stroke-width:0.83792746" />
      <path
         id="path6223"
         d="m 55.899472,183.0078 c 0.821665,1.13288 2.03377,2.01051 3.418259,2.43761 0.329033,0.1015 0.666938,0.17728 1.009839,0.22709 1.108933,0.064 2.223536,-0.14351 3.216616,-0.59959 0.635753,-0.32086 1.211885,-0.74045 1.702476,-1.23337 -0.558769,0.41421 -1.177514,0.73305 -1.82245,0.94496 -0.975426,0.36279 -2.03218,0.47464 -3.045224,0.33987 -0.318368,-0.0121 -0.63696,-0.0486 -0.951967,-0.1102 -1.326416,-0.25942 -2.58974,-0.96577 -3.527369,-2.00637 z"
         inkscape:connector-curvature="0"
         style="fill-rule:evenodd" />
      <path
         id="path6225"
         d="m 42.344735,191.40725 c -1.368983,0.38928 -2.947539,3.28294 -3.192645,4.4809 -0.245149,1.19795 -0.312432,1.1807 0.392079,1.79237 0.704511,0.61166 1.326394,0.13926 3.752758,0.28005 2.426364,0.14078 8.428135,1.21218 10.810183,0.44809 2.382049,-0.76408 3.110196,-0.70247 3.304668,-2.57652 0.194465,-1.87404 -3.170466,-4.81674 -4.592928,-5.43309 -1.422486,-0.61637 -1.515151,-0.33934 -2.184441,0.11202 -0.66929,0.45136 -0.10776,1.81615 -1.120226,2.40849 -1.012473,0.59233 -3.16688,-0.0455 -4.368883,-0.33607 -1.201935,-0.29057 -1.431583,-1.56552 -2.800565,-1.17624 z"
         inkscape:connector-curvature="0"
         style="fill-rule:evenodd" />
      <path
         id="path6227"
         d="m 45.127377,192.5342 c -0.50762,-0.64781 -0.836943,-1.44854 -0.929855,-2.28437 -0.09287,-0.83555 0.05118,-1.7076 0.419413,-2.48332 0.494804,-1.03403 1.015909,-1.43601 1.642498,-2.58099 0.319577,-0.60865 0.542571,-1.27003 0.625018,-1.95157 0.06972,-0.60175 0.02657,-1.22062 0.02034,-1.78293 0.02595,-1.30269 0.244143,-2.66816 0.128533,-4.00011 -0.07915,-0.74963 -0.263477,-1.48347 -0.543423,-2.17371 0.219973,0.71166 0.338285,1.44993 0.352759,2.18572 0.05146,1.32648 -0.227427,2.61282 -0.319577,3.97143 -0.0592,0.60232 -0.07842,1.15679 -0.203748,1.70462 -0.131995,0.59224 -0.386029,1.1546 -0.719251,1.66054 -0.402587,0.63821 -1.385004,1.72732 -1.830204,2.52588 -0.506478,0.90322 -0.760364,1.9554 -0.715534,3.00804 0.04483,1.05227 0.387711,2.09795 0.989251,2.9845 z"
         inkscape:connector-curvature="0"
         style="fill-rule:evenodd" />
      <path
         id="path6229"
         d="m 68.712621,176.23267 c -1.84824,-0.1317 -3.269494,-3.74089 -5.159316,-3.81773 -2.298926,-0.41886 -4.660589,0.2812 -6.275955,1.74945 -1.10945,1.00834 -4.740348,1.57887 -3.718703,-0.81333 0.762784,-1.89074 2.947539,-3.42184 4.518545,-4.24767 1.721094,-0.7769 3.640063,-0.78869 5.489332,-0.60026 2.716997,0.20284 5.664536,3.701 6.574832,6.34899 0.311625,0.99373 -0.257674,2.266 -1.428982,1.38061 z"
         inkscape:connector-curvature="0" />
      <path
         id="path6231"
         d="m 64.581887,118.44749 a 15.140306,3.3145252 0 0 1 -15.143142,3.30926 15.140306,3.3145252 0 0 1 -15.138916,-3.30503 l 4.201028,37.31053 a 10.941921,3.7626159 0 0 0 10.937888,3.76149 10.941921,3.7626159 0 0 0 10.942114,-3.76149 z"
         style="fill:#000000;fill-opacity:0.09389672"
         inkscape:connector-curvature="0" />
      <path
         id="path6233"
         d="m 64.58055,118.44244 a 15.140307,3.3145252 0 0 1 -15.140306,3.31452 15.140307,3.3145252 0 0 1 -15.140307,-3.31452 15.140307,3.3145252 0 0 1 15.140307,-3.31453 15.140307,3.3145252 0 0 1 15.140306,3.31453 z"
         style="fill:#000000;fill-opacity:0.06572768"
         inkscape:connector-curvature="0" />
      <path
         sodipodi:nodetypes="sscssssssscsss"
         id="path6235"
         d="m 29.946254,165.3934 c -1.43327,0.94449 -2.706593,2.31789 -3.353508,3.9078 -1.209672,2.97299 -0.61245,9.60952 -0.61245,9.60952 0,0 -2.078117,-3.49 -3.784348,-4.4036 -1.807851,-0.96801 -4.310556,0.23994 -6.106131,-0.75065 -1.321457,-0.72903 -2.572089,-2.02603 -2.863968,-3.50675 -0.514997,-2.61261 1.305074,-5.18326 2.327158,-7.64219 0.961891,-2.31411 1.932195,-4.7144 3.553357,-6.62547 1.881053,-2.21744 4.141273,-4.44047 6.912468,-5.3213 2.984601,-0.94866 8.179462,-1.17262 9.387496,0.38092 0.487596,0.62706 -0.492966,2.33142 -0.492966,2.33142 0,0 -0.596888,3.59044 0.228929,5.06499 1.058019,1.88917 5.53382,2.43219 5.379773,3.64051 -0.218711,1.71554 -7.490999,1.28198 -10.57581,3.3148 z"
         inkscape:connector-curvature="0"
         style="fill-rule:evenodd;stroke:none;stroke-width:0;stroke-miterlimit:4;stroke-dasharray:none" />
      <path
         inkscape:connector-curvature="0"
         d="m 29.603281,176.68076 c 1.671937,-1.29167 4.485386,-6.144 6.363558,-6.36625 2.32066,-0.27466 4.688594,0.98134 6.303961,2.44971 1.10945,1.00834 4.824367,2.41902 3.802719,0.0268 -0.762784,-1.89074 -2.947538,-3.42184 -4.518545,-4.24767 -1.721091,-0.7769 -3.640062,-0.78869 -5.489331,-0.60027 -2.716998,0.20284 -6.252654,4.42915 -7.16295,7.07715 -0.311625,0.99372 -0.461154,2.55837 0.700835,1.66066 z"
         id="path6237" />
      <path
         sodipodi:nodetypes="csscccc"
         id="path6239"
         d="m 35.147953,125.9773 3.350372,29.78458 c 0.232292,2.06493 4.899197,3.76239 10.941923,3.76239 6.042724,0 10.941473,-1.68444 10.941921,-3.76239 l 3.36023,-29.86972 c -8.505204,1.58902 -21.121641,4.84633 -28.594894,0.0851 z"
         inkscape:connector-curvature="0"
         style="fill:#d2e45b;fill-opacity:1" />
      <ellipse
         id="ellipse6241"
         rx="14.302152"
         ry="3.5945821"
         cy="125.88969"
         cx="49.440243"
         style="fill:#bfdb58;fill-opacity:1" />
      <path
         sodipodi:nodetypes="sscssssssssss"
         style="fill-rule:evenodd"
         inkscape:connector-curvature="0"
         d="m 69.745283,164.4368 c 2.372564,2.30787 3.296251,5.84694 4.032815,9.07383 0.814726,3.56932 0.336068,10.97822 0.336068,10.97822 0,0 1.223055,-3.43226 2.352475,-4.81698 1.430367,-1.7537 3.82693,-2.49607 5.377086,-4.14483 2.007663,-2.13537 3.919379,-4.52989 4.928996,-7.28147 0.595168,-1.62205 1.150411,-3.52921 0.560113,-5.15304 -1.167611,-3.21195 -4.706012,-4.99227 -7.394837,-7.10179 -2.115724,-1.6599 -4.239705,-3.53853 -6.812319,-4.32161 -3.402841,-1.0358 -9.907704,-1.41599 -10.667467,-0.27361 -0.938648,1.41136 2.180974,2.94521 2.085726,4.63752 -0.109608,1.94743 -3.602139,3.1837 -2.983835,5.03362 0.93533,2.79844 6.070146,1.31278 8.185179,3.37014 z"
         id="path6243" />
      <ellipse
         id="ellipse6245"
         rx="0.42951256"
         ry="0.52113998"
         cy="179.04176"
         cx="60.148933"
         style="fill:#ffffff;stroke-width:0.81793648" />
      <ellipse
         style="fill:#ffffff;stroke-width:0.81793648"
         cx="36.148293"
         cy="178.04318"
         ry="0.52113998"
         rx="0.42951256"
         id="ellipse6247" />
    </g>
    <g
       style="font-style:normal;font-variant:normal;font-weight:normal;font-stretch:normal;font-size:84.49246216px;line-height:1;font-family:'Amatic SC';-inkscape-font-specification:'Amatic SC';text-align:end;letter-spacing:0px;word-spacing:0px;text-anchor:end;fill:#000000;fill-opacity:1;stroke:none;stroke-width:0.35281518"
       id="flowRoot6251">
      <path
         d="m 243.29976,261.57322 q -0.82513,0 -1.27894,-1.07266 1.6915,-2.97044 2.59913,-6.88976 0.90763,-3.91933 1.48522,-9.57142 0.61884,-5.4458 1.07266,-7.46735 l 0.6601,-4.70319 q 2.4341,-17.53384 3.21797,-23.35095 l 0.16502,-1.32019 0.24754,-1.60899 q 0.6601,-4.16686 0.70135,-6.60097 -0.66009,0 -2.80541,0.20628 -2.14532,0.20628 -2.88793,0.20628 -3.79556,0 -3.79556,-1.6915 l 0.61885,-0.6601 q 0.61884,0.16503 2.02154,0.16503 1.23769,0 3.96059,-0.45382 2.47536,-0.41256 3.96058,-0.41256 1.36145,0 1.36145,1.52647 -0.53633,1.15518 -0.82512,3.09421 -0.28879,1.93904 -0.49507,5.03324 -0.16503,2.64039 -0.37131,3.71305 0.0413,-0.16502 -1.44396,10.93286 l -1.07266,8.20996 q -2.10406,16.13113 -3.383,23.92853 -0.12376,0.94889 -1.0314,3.05295 -0.90763,2.10406 -0.90763,3.383 0.78386,0 2.76416,-0.20628 1.98029,-0.20628 2.7229,-0.20628 3.54802,0 3.54802,1.6915 l -0.78387,0.74261 q -2.0628,0 -4.99198,0.16503 -2.97044,0.16502 -5.03324,0.16502 z"
         style="font-style:normal;font-variant:normal;font-weight:normal;font-stretch:normal;font-family:'Amatic SC';-inkscape-font-specification:'Amatic SC';text-align:end;text-anchor:end;fill:#000000;fill-opacity:1;stroke-width:0.35281518"
         id="path6314" />
      <path
         d="m 274.86066,262.10955 q -1.36145,-0.0413 -2.92918,-0.90763 -1.56773,-0.86638 -2.55788,-2.06281 -1.15517,-1.48522 -1.85652,-8.54001 -0.70136,-7.05479 -0.82512,-16.04862 l -0.0413,-2.7229 q -0.16502,-11.30416 -0.33005,-17.24504 -0.12377,-5.94088 -0.41256,-8.16871 l 0.53633,-1.19642 q 1.93904,0.24753 1.93904,4.66194 l 0.24753,22.40205 q 0,2.68165 0.45382,8.95257 0.45382,6.27092 0.45382,8.95257 0,9.61267 6.35343,9.61267 3.91933,0 4.95073,-17.69886 l 0.12377,-1.73276 q 0.57759,-20.6693 0.57759,-34.36632 l -0.0825,-0.78386 -0.0825,-0.74261 q 0,-0.94889 1.44396,-0.94889 0.99015,0 1.23769,0.53633 0.20628,0.61884 0.20628,2.92918 0,6.60097 -0.53633,8.62252 0.0825,0.24754 0.0825,0.53633 0,0.82512 -0.20628,3.383 -0.20628,2.55788 -0.20628,3.34174 0,0.45382 0.0413,0.82512 0.0412,0.37131 0.0412,0.86638 -0.12377,1.56773 -0.20628,5.77585 -0.12377,8.29248 -0.3713,13.94456 -0.2888,7.30233 -2.02155,12.41808 -0.86638,2.59914 -2.43411,4.00184 -1.52648,1.40271 -3.58928,1.40271 z"
         style="font-style:normal;font-variant:normal;font-weight:normal;font-stretch:normal;font-family:'Amatic SC';-inkscape-font-specification:'Amatic SC';text-align:end;text-anchor:end;fill:#000000;fill-opacity:1;stroke-width:0.35281518"
         id="path6316" />
      <path
         d="m 305.30765,262.19206 q -0.53633,-0.33005 -1.98029,-0.74261 -1.60899,-0.49507 -2.76416,-1.44396 -1.15517,-0.94889 -2.18657,-2.84667 -1.73276,-3.30049 -2.10406,-9.65393 -0.16503,-1.93903 -0.16503,-5.07449 l 0,-9.65393 q 0,-3.30048 0.0413,-5.15701 0.0825,-1.89778 0.33005,-5.4458 0.24754,-3.87807 0.74261,-6.47721 0.53633,-2.59913 1.60899,-5.19826 1.07265,-2.68165 2.59913,-3.83682 0.78387,-0.57758 2.31034,-1.19643 1.32019,-0.49507 2.10406,-0.90763 l 3.383,0 0.24754,0.0413 q 0.0825,0.0412 0.20628,0.0412 0.3713,0.12377 0.45381,0.12377 0.33005,0.16503 0.37131,0.20628 0.20628,0.20628 0.24753,0.33005 0.0825,0.33005 0.0825,0.53633 l -1.11392,1.23768 -3.54802,0 q -1.65024,0 -2.92918,1.56773 -1.27894,1.52648 -2.02155,3.91933 -0.61884,2.06281 -1.07266,4.95073 -0.41256,2.88793 -0.53633,5.0745 -0.12377,1.98029 -0.12377,3.67179 l -0.16502,0.45382 q 0,3.46551 -0.16503,8.54001 -0.16502,5.0745 -0.16502,8.49875 0,1.98029 0.0825,3.46551 0.12377,1.48522 0.37131,3.383 0.24753,1.85653 0.86638,3.30049 0.61884,1.40271 1.60898,2.80541 0.94889,1.3202 2.47537,2.02155 1.52647,0.6601 3.54802,0.6601 1.23768,0 2.10406,-0.74261 1.27894,0 1.27894,0.90763 0,0.61884 -1.07266,1.40271 -1.07266,0.82512 -2.14531,1.23768 l -2.80542,0 z"
         style="font-style:normal;font-variant:normal;font-weight:normal;font-stretch:normal;font-family:'Amatic SC';-inkscape-font-specification:'Amatic SC';text-align:end;text-anchor:end;fill:#000000;fill-opacity:1;stroke-width:0.35281518"
         id="path6318" />
      <path
         d="m 339.59146,262.35709 q -1.9803,0 -4.74445,-7.59112 -1.77402,-4.78571 -3.30049,-10.23151 -1.48522,-5.48706 -2.43411,-9.98398 -0.90763,-4.49691 -0.99015,-6.51846 l -0.20628,-0.33005 -1.32019,2.72291 q -1.15517,2.35159 -1.52648,3.21797 -0.33004,0.86638 -0.74261,2.47537 -0.45381,1.81526 -0.45381,3.34174 0,0.74261 -0.20628,3.01169 -0.20628,2.26909 -0.20628,3.05295 l 0,10.8091 q 0,0.94889 0.28879,2.43411 0.28879,1.48522 0.28879,2.39285 0,0.45382 -0.41256,0.74261 -0.41256,0.28879 -0.94889,0.28879 -1.11391,0 -1.48522,-0.3713 -0.3713,-0.33005 -0.3713,-1.40271 l 0,-15.88359 q 0,-1.9803 0.41256,-5.32204 0.3713,-3.54802 0.3713,-5.32203 0,-2.92919 0.41256,-8.16871 0.41256,-5.19826 0.41256,-8.1687 l 0,-11.71673 q 0.49508,-0.94889 1.60899,-0.94889 0.61884,0 1.11392,0.49507 0.49507,0.49508 0.49507,1.11392 -0.74261,1.36145 -0.74261,4.04309 0,3.58928 -0.16502,8.91132 -0.16503,5.32203 -0.16503,8.95257 0.82512,-0.33005 6.60097,-11.67547 5.7346,-11.30417 6.31219,-11.30417 2.14531,0 2.26908,1.40271 -5.19827,7.63237 -9.03508,15.63605 l -0.0825,2.7229 -0.0825,2.68165 q 0,2.43411 1.36145,8.20996 1.40271,5.77585 3.25924,11.59296 1.89777,5.81711 3.21797,8.33373 0.3713,0.6601 1.0314,1.48522 0.82512,1.11391 1.19643,1.98029 0.41256,0.82512 0.41256,1.60899 0,0.57758 -0.41256,0.90763 -0.41256,0.37131 -1.0314,0.37131 z"
         style="font-style:normal;font-variant:normal;font-weight:normal;font-stretch:normal;font-family:'Amatic SC';-inkscape-font-specification:'Amatic SC';text-align:end;text-anchor:end;fill:#000000;fill-opacity:1;stroke-width:0.35281518"
         id="path6320" />
      <path
         d="m 350.60683,261.94452 q -1.56773,0 -1.6915,-1.77401 0,-0.57758 0.0413,-1.07266 0.0412,-0.49507 0.0412,-1.07265 l -0.28879,-0.33005 q 0.61884,-1.6915 0.61884,-3.46551 0,-1.44397 -0.20628,-5.56957 -0.20628,-4.12561 -0.20628,-5.56958 0,-4.7857 0.28879,-12.70687 0.2888,-7.92117 0.2888,-12.74813 0,-2.0628 -0.16503,-5.0745 -0.16502,-2.97044 -0.16502,-5.03324 0,-1.23768 0.53633,-1.81527 0.57758,-0.57758 1.89778,-0.57758 0.94889,0 1.36145,0.53632 0.53633,0.12377 2.47536,0.33005 2.10406,0.24754 3.6718,0.74261 1.56773,0.49508 1.56773,1.27894 0,0.78387 -1.56773,1.6915 -4.62069,-1.52647 -6.84851,-1.60899 l -0.41257,0.49508 q 0.0825,1.56773 0.0825,3.63053 0,2.64039 -0.16503,6.55972 -0.16502,3.91933 -0.16502,6.55972 0,2.35159 1.19642,2.35159 l 1.40271,-0.0825 q 1.23768,-0.0825 1.44396,-0.0825 3.25923,0 3.30049,1.52647 0,0.90764 -0.45382,1.56774 -0.45381,0.61884 -1.23768,0.61884 -1.40271,0 -1.93903,-0.6601 l -2.76416,-0.41256 -0.37131,0 -0.41256,0.41256 0,0.24754 q 0.16503,1.93903 0.16503,6.68348 l -0.0825,5.98213 -0.0825,6.02339 q 0,3.30049 0.24754,6.72475 0.12377,1.93903 0.86638,2.59913 0.74261,0.61884 2.76415,0.61884 l 1.52648,-0.0825 1.60899,-0.0825 q 2.47536,0 2.47536,1.11391 0,1.52647 -3.67179,1.52647 l -6.97228,0 z"
         style="font-style:normal;font-variant:normal;font-weight:normal;font-stretch:normal;font-family:'Amatic SC';-inkscape-font-specification:'Amatic SC';text-align:end;text-anchor:end;fill:#000000;fill-opacity:1;stroke-width:0.35281518"
         id="path6322" />
      <path
         d="m 383.52919,261.86201 q -0.99014,-1.11391 -2.18657,-5.81711 -1.15517,-4.74445 -2.14532,-10.68532 -0.82512,-4.99199 -1.93903,-9.53016 -1.0314,-4.24937 -1.93904,-4.24937 l -0.33005,0 q -1.85652,0 -1.85652,1.19642 0,4.57943 0.74261,18.52398 0.28879,7.46736 0.70135,8.87006 l -0.61884,1.40271 -1.23768,0 -0.61884,-0.6601 q -1.36145,-36.55289 -1.36145,-53.22035 0,-1.0314 0.0825,-1.56773 0.12377,-0.53633 0.53633,-1.07266 0.45382,-0.57758 1.23768,-0.57758 4.24938,0 6.84851,2.14531 2.64039,2.14532 2.64039,6.06465 l 0,6.14716 q 0,1.56773 -1.0314,4.20812 -0.99015,2.64039 -2.26909,5.0745 -1.11391,2.02154 -1.11391,2.14531 0,0.28879 3.21797,13.49074 3.21798,13.20195 3.46552,13.86205 0,0.0412 0.12376,0.33004 0.12377,0.24754 0.57759,1.11392 0.6601,1.27894 0.6601,2.02155 0,1.19642 -0.94889,1.19642 l -1.23769,-0.41256 z m -9.90146,-32.38602 q 1.56773,0 2.84667,-1.60899 1.3202,-1.65024 1.9803,-4.12561 0.66009,-2.3516 0.99014,-4.53817 0.37131,-2.18657 0.37131,-3.67179 0,-1.93904 -0.20628,-3.21798 -0.16503,-1.27893 -0.6601,-2.68164 -0.53633,-1.44396 -1.77401,-2.18657 -1.19643,-0.78387 -3.05295,-0.78387 -0.45382,0 -0.74261,0.74261 -0.24754,0.70135 -0.24754,1.44396 0,4.16687 0.16502,10.23151 0.16503,6.06465 0.16503,10.23151 l 0.16502,0.16503 z"
         style="font-style:normal;font-variant:normal;font-weight:normal;font-stretch:normal;font-family:'Amatic SC';-inkscape-font-specification:'Amatic SC';text-align:end;text-anchor:end;fill:#000000;fill-opacity:1;stroke-width:0.35281518"
         id="path6324" />
      <path
         d="m 407.95279,261.86201 q -0.99014,-1.11391 -2.18657,-5.81711 -1.15517,-4.74445 -2.14532,-10.68532 -0.82512,-4.99199 -1.93903,-9.53016 -1.0314,-4.24937 -1.93904,-4.24937 l -0.33005,0 q -1.85652,0 -1.85652,1.19642 0,4.57943 0.74261,18.52398 0.28879,7.46736 0.70135,8.87006 l -0.61884,1.40271 -1.23768,0 -0.61884,-0.6601 q -1.36145,-36.55289 -1.36145,-53.22035 0,-1.0314 0.0825,-1.56773 0.12377,-0.53633 0.53633,-1.07266 0.45381,-0.57758 1.23768,-0.57758 4.24938,0 6.84851,2.14531 2.64039,2.14532 2.64039,6.06465 l 0,6.14716 q 0,1.56773 -1.0314,4.20812 -0.99015,2.64039 -2.26909,5.0745 -1.11391,2.02154 -1.11391,2.14531 0,0.28879 3.21797,13.49074 3.21798,13.20195 3.46551,13.86205 0,0.0412 0.12377,0.33004 0.12377,0.24754 0.57759,1.11392 0.6601,1.27894 0.6601,2.02155 0,1.19642 -0.94889,1.19642 l -1.23769,-0.41256 z m -9.90146,-32.38602 q 1.56773,0 2.84667,-1.60899 1.3202,-1.65024 1.98029,-4.12561 0.6601,-2.3516 0.99015,-4.53817 0.37131,-2.18657 0.37131,-3.67179 0,-1.93904 -0.20629,-3.21798 -0.16502,-1.27893 -0.66009,-2.68164 -0.53633,-1.44396 -1.77401,-2.18657 -1.19643,-0.78387 -3.05295,-0.78387 -0.45382,0 -0.74261,0.74261 -0.24754,0.70135 -0.24754,1.44396 0,4.16687 0.16502,10.23151 0.16503,6.06465 0.16503,10.23151 l 0.16502,0.16503 z"
         style="font-style:normal;font-variant:normal;font-weight:normal;font-stretch:normal;font-family:'Amatic SC';-inkscape-font-specification:'Amatic SC';text-align:end;text-anchor:end;fill:#000000;fill-opacity:1;stroke-width:0.35281518"
         id="path6326" />
      <path
         d="m 428.25078,262.4396 q -9.90146,0 -9.90146,-31.10709 l 0,-2.92918 q 0,-23.55723 6.1059,-23.55723 0.41256,0 1.15517,0.20628 1.77402,0.61884 3.46552,0.90764 1.69149,0.28879 1.85652,0.33005 1.65024,0.28879 3.21797,3.25923 1.77402,3.05295 2.64039,7.96242 0.90764,4.90948 0.90764,10.27277 l -0.16503,0.41256 0.0825,5.03324 0.0825,5.03324 q 0,1.77401 -0.0413,3.63054 -0.0413,1.81527 -0.24754,4.12561 -0.24753,2.7229 -0.66009,4.82696 -0.37131,2.0628 -1.03141,4.20812 -0.7426,2.31034 -1.73275,3.87807 -0.94889,1.52648 -2.39285,2.47537 -1.44397,1.0314 -3.34175,1.0314 z m -0.33005,-2.43411 q 1.60899,0 2.88793,-1.23768 1.27894,-1.23769 2.02155,-3.46551 1.56773,-4.62069 1.93903,-9.61267 0.33005,-4.33189 0.33005,-8.0862 0,-3.05295 -0.45381,-9.98397 -0.49508,-6.64223 -0.49508,-9.98397 l -0.33004,-0.6601 0.16502,-0.41256 q 0,-2.43411 -0.94889,-4.49691 -0.94889,-2.10406 -2.59913,-3.34174 -1.60899,-1.27894 -3.54803,-1.27894 -3.87807,0 -4.57942,3.71304 -0.33005,1.81527 -0.37131,3.63054 0,0.41256 -0.0412,2.31034 0,1.89778 -0.16503,3.54802 -0.12377,1.65025 -0.33005,2.68165 0,0.99015 -0.20628,3.96058 -0.20628,2.97044 -0.20628,3.96059 l 0.0825,3.34174 0.0825,3.34174 q 0,3.71305 0.70135,9.15885 0.49507,3.75431 1.19643,6.3947 0.70135,2.59913 1.89778,4.49691 1.27894,2.02155 2.97043,2.02155 z"
         style="font-style:normal;font-variant:normal;font-weight:normal;font-stretch:normal;font-family:'Amatic SC';-inkscape-font-specification:'Amatic SC';text-align:end;text-anchor:end;fill:#000000;fill-opacity:1;stroke-width:0.35281518"
         id="path6328" />
      <path
         d="m 463.93729,261.7795 q -0.0412,-0.86638 -2.59913,-0.86638 -0.41256,-17.86388 -0.41256,-22.64959 l -0.20628,-0.33005 0.28879,-0.74261 q 0,-1.44396 -0.28879,-3.13546 l -1.3202,-0.33005 q -0.74261,0.24754 -1.6915,0.24754 -0.82512,0 -2.7229,-0.45382 -1.6915,-0.41256 -2.68164,-0.41256 l -0.86638,0.33005 q 0,1.77401 -0.12377,5.32203 -0.12377,3.50677 -0.12377,5.32204 l 0.24754,0.3713 q 0,2.3516 0.24754,7.0548 0.24753,4.70319 0.24753,7.05479 0,0.90763 -0.3713,1.56773 -0.33005,0.61884 -1.0314,0.61884 -1.85653,0 -1.85653,-5.0745 l 0.0825,-7.75614 0.0825,-7.71489 q 0,-7.71489 -0.24754,-8.25122 0.41256,-0.78386 0.41256,-5.61083 0,-3.71304 -0.28879,-9.90146 -0.33005,-7.01353 -0.33005,-9.8602 0,-0.61884 0.41256,-1.11392 0.45382,-0.49507 1.0314,-0.49507 1.6915,0 1.6915,4.90948 0,4.24937 -0.16502,10.39653 -0.16503,6.22967 -0.16503,10.23151 0,0.99014 6.47721,0.99014 l 0.28879,0 q 1.65024,0 2.3516,-0.61884 0.70135,-0.61884 0.70135,-2.14531 0,-4.16687 -0.53633,-11.67548 -0.57758,-8.00368 -0.57758,-11.63421 0,-0.49507 0.45381,-0.86638 0.45382,-0.41256 0.99015,-0.41256 0.0413,0 0.78387,0.20628 l 0.74261,0.28879 q 0,7.09605 0.53632,19.72041 0.53633,12.70688 0.53633,19.72041 0,9.77769 0.53633,16.74997 l -0.53633,0.94889 z m -5.32203,-31.27211 0,-0.16503 0.16502,0.16503 -0.16502,0 z"
         style="font-style:normal;font-variant:normal;font-weight:normal;font-stretch:normal;font-family:'Amatic SC';-inkscape-font-specification:'Amatic SC';text-align:end;text-anchor:end;fill:#000000;fill-opacity:1;stroke-width:0.35281518"
         id="path6330" />
      <path
         d="m 489.30979,261.86201 q -0.99015,-1.11391 -2.18658,-5.81711 -1.15517,-4.74445 -2.14531,-10.68532 -0.82512,-4.99199 -1.93904,-9.53016 -1.0314,-4.24937 -1.93903,-4.24937 l -0.33005,0 q -1.85653,0 -1.85653,1.19642 0,4.57943 0.74261,18.52398 0.2888,7.46736 0.70136,8.87006 l -0.61884,1.40271 -1.23769,0 -0.61884,-0.6601 q -1.36145,-36.55289 -1.36145,-53.22035 0,-1.0314 0.0825,-1.56773 0.12377,-0.53633 0.53633,-1.07266 0.45382,-0.57758 1.23768,-0.57758 4.24938,0 6.84852,2.14531 2.64038,2.14532 2.64038,6.06465 l 0,6.14716 q 0,1.56773 -1.0314,4.20812 -0.99014,2.64039 -2.26908,5.0745 -1.11392,2.02154 -1.11392,2.14531 0,0.28879 3.21798,13.49074 3.21797,13.20195 3.46551,13.86205 0,0.0412 0.12377,0.33004 0.12377,0.24754 0.57758,1.11392 0.6601,1.27894 0.6601,2.02155 0,1.19642 -0.94889,1.19642 l -1.23768,-0.41256 z m -9.90146,-32.38602 q 1.56773,0 2.84667,-1.60899 1.32019,-1.65024 1.98029,-4.12561 0.6601,-2.3516 0.99015,-4.53817 0.3713,-2.18657 0.3713,-3.67179 0,-1.93904 -0.20628,-3.21798 -0.16502,-1.27893 -0.6601,-2.68164 -0.53633,-1.44396 -1.77401,-2.18657 -1.19643,-0.78387 -3.05295,-0.78387 -0.45382,0 -0.74261,0.74261 -0.24754,0.70135 -0.24754,1.44396 0,4.16687 0.16503,10.23151 0.16502,6.06465 0.16502,10.23151 l 0.16503,0.16503 z"
         style="font-style:normal;font-variant:normal;font-weight:normal;font-stretch:normal;font-family:'Amatic SC';-inkscape-font-specification:'Amatic SC';text-align:end;text-anchor:end;fill:#000000;fill-opacity:1;stroke-width:0.35281518"
         id="path6332" />
      <path
         d="m 501.81039,261.86201 q -0.99014,-0.16502 -1.81526,-0.74261 -0.78387,-0.53633 -0.90764,-1.32019 l 0.41256,-0.6601 q 0.6601,0.0825 1.48522,0.28879 0.99015,0.2888 1.56773,0.2888 1.89778,0 3.30049,-1.44397 1.44396,-1.48522 2.14532,-3.87807 1.23768,-4.20812 1.23768,-8.25122 0,-3.13546 -0.99015,-6.35343 -0.99014,-3.21798 -2.59913,-6.14716 l -0.99015,-1.77401 q -1.77401,-3.21798 -2.76415,-5.19827 -0.99015,-1.98029 -1.73276,-4.4144 -1.07266,-3.34174 -1.07266,-6.72474 0,-1.52648 0.37131,-3.383 0.41256,-1.89778 1.15517,-3.7543 0.78386,-1.9803 2.14531,-3.17672 1.36145,-1.23768 3.0117,-1.23768 1.0314,0 2.10406,0.7426 1.11391,0.74261 1.11391,1.60899 0,0.6601 -1.11391,0.6601 -0.28879,0 -0.86638,-0.24754 -0.53633,-0.24753 -0.90763,-0.24753 -1.27894,0 -2.26909,1.0314 -0.99014,0.99014 -1.52647,2.64039 -1.03141,3.0942 -1.03141,5.69334 0,1.65024 0.41257,3.30048 l 0.28879,1.40271 q 0.0412,0.37131 0.49507,1.6915 l 0.41256,1.48522 0.61884,1.52648 1.48522,2.59913 0.6601,1.11391 q 1.15517,1.93904 1.93904,3.34175 0.78386,1.4027 1.56773,3.0942 0.82512,1.81527 1.23768,3.34174 0.41256,1.52648 0.74261,3.75431 0.28879,2.02155 0.28879,4.62068 0,4.24938 -1.15517,7.59112 -0.74261,2.10406 -1.77401,3.58928 -0.99015,1.44396 -2.55788,2.3516 -1.65024,0.99014 -3.71305,0.99014 l -0.41256,0.20628 z m 6.72475,-55.11813 q 0,-0.0825 -0.0825,-0.0825 l 0,0.0825 0.0825,0 z"
         style="font-style:normal;font-variant:normal;font-weight:normal;font-stretch:normal;font-family:'Amatic SC';-inkscape-font-specification:'Amatic SC';text-align:end;text-anchor:end;fill:#000000;fill-opacity:1;stroke-width:0.35281518"
         id="path6334" />
      <path
         d="m 538.28077,261.57322 q -0.90764,0 -1.27894,-0.12377 -0.37131,-0.0825 -0.53633,-0.45382 -0.16503,-0.3713 -0.28879,-1.27893 L 534.774,248.66007 q -1.52648,-0.41257 -4.16687,-0.41257 -0.94889,0 -3.0942,-0.20628 -2.14532,-0.20628 -2.92918,-0.20628 -0.2888,0 -0.41257,0.0825 -0.12376,0.0825 -0.16502,0.28879 -0.0413,0.0825 -0.0413,0.16502 0,0.0825 -0.0412,0.12377 l -0.16503,1.6915 q -0.20628,2.14532 -0.94889,6.06465 -0.45381,2.14531 -0.99014,3.54802 -0.61884,1.44396 -1.27894,1.44396 -0.53633,0 -1.11391,-0.45382 -0.57759,-0.49507 -0.57759,-0.99014 l 0.0825,-0.24754 0.0825,-0.24753 q 1.40271,-5.40455 2.55788,-11.92301 l 0.94889,-5.23953 q 0.28879,-1.52647 0.57759,-3.42425 l 0.49507,-2.97044 0.90763,-5.56957 q 0.37131,-2.3516 1.48522,-7.38484 1.07266,-5.15701 1.48522,-7.83866 l 0.33005,-3.0942 0.16502,-1.36145 q 0.20629,-2.26909 0.41257,-3.42426 0.33004,-2.14531 0.53632,-2.51662 l 0.57759,0.0413 q 0.24754,0.0412 0.57759,0.0412 1.0314,0 1.52647,-0.49507 0.57759,0 1.0314,0.3713 0.49508,0.37131 0.49508,0.90764 0,2.39285 0.12376,4.4144 0.16503,1.98029 0.49508,4.86822 l 0.49507,4.45565 q 1.0314,11.92301 4.70319,40.92604 l 0,0.24754 q 0,0.86638 -0.66009,1.23768 z m -3.87808,-15.18224 q -0.61884,-8.87006 -3.21797,-35.93405 -4.37315,21.74196 -4.57943,22.56708 -1.93903,9.61267 -1.93903,12.29431 0,0.41256 3.25923,0.74261 3.25923,0.33005 5.61083,0.33005 l 0.86637,0 z"
         style="font-style:normal;font-variant:normal;font-weight:normal;font-stretch:normal;font-family:'Amatic SC';-inkscape-font-specification:'Amatic SC';text-align:end;text-anchor:end;fill:#000000;fill-opacity:1;stroke-width:0.35281518"
         id="path6336" />
      <path
         d="m 548.30598,260.7481 q 0.78387,-7.87991 0.78387,-20.54553 0,-5.23952 0.57759,-17.03877 0.57758,-11.75798 0.57758,-16.9975 0,-0.74261 0.70135,-1.15517 0.70136,-0.45382 1.60899,-0.45382 1.77401,0 4.16687,0.28879 2.4341,0.2888 4.16686,0.86638 1.77401,0.53633 1.77401,1.27894 0,1.44396 -3.01169,1.44396 -1.56773,-0.82512 -4.66194,-0.82512 -0.61884,0 -1.0314,0.0825 -0.28879,0.0825 -0.37131,0.20628 -0.0825,0.12377 -0.20628,0.57759 -0.0825,0.33005 -0.33005,0.90763 0,3.34175 -0.41256,8.95257 -0.41256,5.65209 -0.41256,8.87006 l 0,2.97044 q 0,0.28879 1.40271,0.24754 4.24938,0 4.24938,1.32019 0,0.6601 -0.6601,1.15517 -0.61884,0.45382 -1.36145,0.45382 -0.45382,0 -1.40271,-0.24754 -0.90763,-0.24754 -1.40271,-0.24754 -1.52647,0 -1.52647,4.12561 l 0,9.57142 q 0,1.98029 0.24754,6.02338 0.24753,4.00184 0.24753,6.06465 0,3.383 -2.02155,3.383 l -1.6915,-1.27894 z"
         style="font-style:normal;font-variant:normal;font-weight:normal;font-stretch:normal;font-family:'Amatic SC';-inkscape-font-specification:'Amatic SC';text-align:end;text-anchor:end;fill:#000000;fill-opacity:1;stroke-width:0.35281518"
         id="path6338" />
      <path
         d="m 576.85521,259.63418 -0.0825,-3.0942 -0.0825,-3.05295 0.0825,-1.48522 0.0825,-1.48522 q 0,-1.11392 -0.33005,-2.02155 0,-6.84851 -0.82512,-20.99935 -0.86638,-14.56339 -0.90763,-20.21548 -5.40455,0 -7.01354,-0.28879 -1.73275,-0.33005 -1.73275,-1.3202 0.3713,-0.94889 1.60898,-0.94889 1.9803,0 7.34359,0.37131 5.11575,0.41256 7.34358,0.41256 l 1.81527,-0.0413 1.77401,-0.0413 q 1.52648,0 1.52648,1.07266 0,0.53633 -0.53633,0.82512 -0.53633,0.28879 -1.3202,0.28879 -1.07266,0 -3.58928,-0.16502 -2.51662,-0.16503 -3.63053,-0.16503 -0.24754,0 -0.33005,0.24754 -0.0825,0.41256 -0.0825,1.60899 0,8.25121 0.99014,24.7949 0.99015,16.50244 0.99015,24.79491 0,0.57759 -0.74261,1.11391 -0.74261,0.49508 -1.40271,0.49508 l -0.94889,-0.70136 z"
         style="font-style:normal;font-variant:normal;font-weight:normal;font-stretch:normal;font-family:'Amatic SC';-inkscape-font-specification:'Amatic SC';text-align:end;text-anchor:end;fill:#000000;fill-opacity:1;stroke-width:0.35281518"
         id="path6340" />
    </g>
    <g
       transform="matrix(1.1247449,0,0,1.1247449,1588.9544,-14220.868)"
       style="font-style:normal;font-variant:normal;font-weight:normal;font-stretch:normal;font-size:75.1214447px;line-height:1;font-family:'Amatic SC';-inkscape-font-specification:'Amatic SC';text-align:end;letter-spacing:0px;word-spacing:0px;text-anchor:end;fill:#000000;fill-opacity:1;stroke:none;stroke-width:0.35281518"
       id="flowRoot6261">
      <path
         d="m -1175.2815,12811.793 q -0.9904,0 -1.3205,-0.514 -0.3301,-0.477 -0.3301,-1.577 l 0,-6.859 q 0,-4.695 -0.2568,-12.362 -0.2934,-8.73 -0.2934,-12.324 l 0.073,-4.219 0.073,-4.218 q 0,-1.284 -0.11,-3.594 l -0.1834,-3.082 q -0.1101,0.11 -0.1467,0.514 -0.8804,5.649 -2.641,15.076 -1.724,9.39 -2.6043,13.718 -0.8437,3.888 -1.3572,6.859 -0.1467,0.954 -0.6603,1.541 -0.4768,0.587 -1.0637,0.587 -0.5502,0 -0.9904,-0.624 -0.4401,-0.623 -0.5869,-1.724 -0.2567,-1.981 -2.0541,-11.224 -1.7606,-9.243 -3.4479,-17.423 -1.6873,-8.18 -1.9441,-8.583 -0.2934,7.226 -0.2934,15.185 0,3.962 0.11,11.958 0.1101,7.96 0.1101,11.921 0,0.917 0.1834,3.558 0.1834,2.641 0.1834,3.595 0,1.357 -0.5869,1.944 -2.1275,0 -2.1275,-3.925 l 0,-12.545 0.073,-7.592 q 0.037,-3.375 0.037,-7.63 0,-2.971 0.11,-8.913 0.11,-5.942 0.11,-8.914 l 0,-6.565 q 0,-0.404 0.3302,-0.697 0.3668,-0.33 0.7703,-0.33 0.5502,0 0.7702,0.623 0.6603,2.128 3.3746,13.132 2.7144,10.967 4.0716,17.203 0.5868,2.788 2.2008,12.508 l 1.1738,-6.713 q 0.4034,-2.457 1.137,-6.602 0.3302,-1.504 3.2279,-17.203 l 0.2201,-1.211 0.7336,-3.888 0.7703,-4.218 0.2201,-1.211 0.1467,-1.027 q 0.1467,-0.77 0.4769,-1.173 0.3668,-0.404 0.8069,-0.404 0.4402,0 0.7336,0.404 0.2935,0.366 0.2935,0.99 l 0,7.446 q 0,5.355 0.6235,17.02 0.5869,11.004 0.5869,16.946 0,1.614 0.1834,6.199 0.1834,4.585 0.1834,7.556 0,1.651 -0.2567,2.128 -0.2568,0.477 -0.8437,0.477 z"
         style="font-style:normal;font-variant:normal;font-weight:normal;font-stretch:normal;font-family:'Amatic SC';-inkscape-font-specification:'Amatic SC';text-align:end;text-anchor:end;fill:#000000;fill-opacity:1;stroke-width:0.35281518"
         id="path6301" />
      <path
         d="m -1148.5048,12810.729 q -0.807,0 -1.1371,-0.11 -0.3301,-0.07 -0.4768,-0.404 -0.1468,-0.33 -0.2568,-1.137 l -1.2471,-9.83 q -1.3572,-0.367 -3.7047,-0.367 -0.8437,0 -2.7511,-0.183 -1.9074,-0.184 -2.6043,-0.184 -0.2567,0 -0.3668,0.07 -0.11,0.07 -0.1467,0.256 -0.037,0.07 -0.037,0.147 0,0.07 -0.037,0.11 l -0.1467,1.504 q -0.1834,1.907 -0.8436,5.392 -0.4035,1.908 -0.8804,3.155 -0.5502,1.283 -1.1371,1.283 -0.4768,0 -0.9903,-0.403 -0.5136,-0.44 -0.5136,-0.88 l 0.073,-0.22 0.073,-0.221 q 1.2471,-4.805 2.2741,-10.6 l 0.8437,-4.659 q 0.2568,-1.357 0.5135,-3.044 l 0.4402,-2.641 0.807,-4.952 q 0.3301,-2.091 1.3204,-6.566 0.9537,-4.585 1.3205,-6.969 l 0.2935,-2.751 0.1467,-1.21 q 0.1834,-2.018 0.3668,-3.045 0.2935,-1.907 0.4769,-2.237 l 0.5135,0.04 q 0.2201,0.04 0.5135,0.04 0.917,0 1.3572,-0.44 0.5135,0 0.917,0.33 0.4402,0.33 0.4402,0.807 0,2.127 0.11,3.925 0.1467,1.76 0.4402,4.328 l 0.4401,3.961 q 0.917,10.601 4.1816,36.387 l 0,0.22 q 0,0.771 -0.5869,1.101 z m -3.448,-13.498 q -0.5502,-7.887 -2.861,-31.949 -3.8881,19.33 -4.0715,20.064 -1.724,8.547 -1.724,10.931 0,0.367 2.8977,0.66 2.8978,0.294 4.9886,0.294 l 0.7702,0 z"
         style="font-style:normal;font-variant:normal;font-weight:normal;font-stretch:normal;font-family:'Amatic SC';-inkscape-font-specification:'Amatic SC';text-align:end;text-anchor:end;fill:#000000;fill-opacity:1;stroke-width:0.35281518"
         id="path6303" />
      <path
         d="m -1139.6281,12810.289 q -1.3939,0 -1.3939,-0.881 0,-3.668 2.0908,-11.701 2.0908,-8.033 2.0908,-11.811 0,-1.284 -0.9904,-6.419 -0.9904,-5.135 -2.1275,-9.867 -1.1371,-4.732 -1.6139,-5.282 l 0.037,-0.293 q 0.037,-0.11 0.037,-0.257 0,-0.477 -0.3302,-1.064 -0.3301,-0.623 -0.3301,-0.88 0,-0.294 0.4769,-0.514 0.4768,-0.22 0.8803,-0.22 0.5869,0 0.9904,0.881 0.4034,0.88 0.5502,1.907 l 0.11,1.724 q 1.0271,2.751 1.9074,7.483 0.917,4.915 1.5406,7.006 0.4401,-0.917 1.1737,-5.906 0.7703,-4.988 0.917,-7.409 0.4769,-6.052 0.9904,-6.236 l 0.6236,-0.11 0.5869,-0.11 0.6602,0.917 q -1.2104,1.797 -1.2104,6.603 0,0.256 0.037,0.44 0.037,0.22 0.037,0.477 l -0.073,0.07 q -0.2201,2.347 -1.4673,8.216 -1.2838,6.089 -1.2838,9.354 0,1.21 1.9441,10.014 1.9441,8.803 2.5309,10.27 0.037,0.07 0.3668,0.624 0.5502,0.917 0.5502,1.54 0,0.477 -0.3301,0.77 -0.3301,0.294 -0.8069,0.294 -0.5136,0 -0.9537,-0.22 l -1.3939,-5.686 q -1.834,-7.446 -2.8244,-12.581 -0.8436,1.284 -1.6506,7.85 -0.8436,6.675 -1.3572,8.216 0.1468,0.257 0.1468,0.917 0,0.77 -0.2935,1.321 -0.2568,0.55 -0.8436,0.55 z"
         style="font-style:normal;font-variant:normal;font-weight:normal;font-stretch:normal;font-family:'Amatic SC';-inkscape-font-specification:'Amatic SC';text-align:end;text-anchor:end;fill:#000000;fill-opacity:1;stroke-width:0.35281518"
         id="path6305" />
      <path
         d="m -1116.8129,12810.069 q -1.7607,0 -2.0541,-0.734 -0.3668,0 -0.6236,0.04 -0.2934,0.04 -0.6236,0.04 -1.6139,0 -2.0541,-0.77 0,-0.293 0.1101,-0.477 0.11,-0.183 0.4401,-0.403 l 0.4402,-0.404 2.1641,0 0.2935,-0.293 q 0,-0.147 0.1467,-0.697 0.11,-0.624 0.11,-0.88 0,-3.118 -0.2567,-8.217 -0.2935,-5.795 -0.2935,-8.216 0,-2.274 0.1834,-8.804 0.1834,-6.492 0.1834,-8.729 0,-5.282 -0.3668,-8.694 -0.6969,-0.22 -2.2375,-0.22 l -0.8803,0.07 -0.917,0.07 q -1.4305,0 -1.4305,-1.284 0,-0.293 0.6602,-0.587 0.6603,-0.33 1.1371,-0.33 2.4576,0 5.6855,0.294 1.944,0.146 3.4479,0.696 1.3205,0.477 1.3205,1.284 0,0.147 -0.1834,0.587 l -1.724,0.147 q -0.5869,-0.44 -2.1641,-0.44 l -0.3668,0.22 q 0.2201,0.66 0.2201,3.998 0,2.971 -0.1101,8.913 -0.11,5.979 -0.11,8.95 0,3.118 0.2567,8.217 0.2568,5.135 0.2568,8.253 l -0.037,0.954 q -0.037,0.55 -0.037,1.357 0,1.76 0.2201,2.09 l -0.073,0.184 q 0,0.733 1.6506,0.733 0.6236,0 1.1004,-0.04 0.4768,-0.04 1.1004,-0.04 2.2375,0 2.2375,1.064 0,0.66 -0.4768,1.1 -0.4769,0.404 -1.1738,0.404 -0.5135,0 -1.2471,-0.147 -0.807,-0.11 -1.2472,-0.11 -0.5135,0 -1.3938,0.403 -0.807,0.441 -1.2838,0.441 z"
         style="font-style:normal;font-variant:normal;font-weight:normal;font-stretch:normal;font-family:'Amatic SC';-inkscape-font-specification:'Amatic SC';text-align:end;text-anchor:end;fill:#000000;fill-opacity:1;stroke-width:0.35281518"
         id="path6307" />
      <path
         d="m -1073.4567,12813.957 q -1.5039,0 -1.5039,-4.805 l 0,-4.916 q 0,-10.857 -0.4402,-16.946 -0.11,-1.43 -0.2934,-2.788 -0.2935,-2.274 -0.2935,-3.264 0,-1.871 0.1468,-4.659 0.1467,-2.787 0.1467,-4.658 0,-2.568 -0.2935,-3.558 -1.4672,1.137 -9.0233,31.655 -0.1101,0.55 -0.1468,1.101 -0.22,1.797 -0.5868,3.044 -0.2201,0.77 -0.6236,1.247 -0.4035,0.44 -0.917,0.44 -1.2105,0 -1.724,-0.586 -0.5135,-0.587 -0.5135,-1.871 0,-1.981 -1.9441,-10.454 -1.9074,-8.51 -4.1082,-16.36 -2.2008,-7.849 -3.0445,-8.656 -0.1834,4.145 -0.6602,12.361 -0.5135,9.134 -0.7703,15.406 -0.2201,6.236 -0.2201,11.811 0,1.687 0.073,3.008 -0.3301,0.99 -1.5773,0.99 -0.2567,0 -0.7703,-0.403 -0.5135,-0.404 -0.5135,-0.661 0,-7.666 1.1738,-23.695 1.1738,-16.029 1.1738,-23.696 0,-0.256 -0.2201,-0.733 -0.2201,-0.44 -0.2201,-0.697 0,-1.137 2.0174,-1.137 0.5502,0 0.917,0.293 0.4035,0.294 0.5502,0.844 0.2935,1.137 0.3302,2.237 0.073,0.954 0.073,0.917 0.3668,2.091 2.1275,6.016 1.6139,3.631 2.1641,5.612 l 0.2201,0.77 q 0.037,0.184 0.6236,2.164 0.5135,1.871 0.9537,3.558 0.4401,1.651 0.6602,2.898 l 0.9904,1.981 q 0.1834,0.954 0.8436,3.668 0.6603,2.604 0.9537,4.512 0.3301,1.907 0.3668,3.594 0.5502,-0.807 2.6043,-7.886 2.0541,-7.116 4.1082,-15.076 2.0908,-7.996 2.531,-10.38 0,0.04 0.1834,-1.137 0.11,-0.881 0.2934,-1.504 0.1834,-0.66 0.4402,-1.394 0.5502,-1.541 1.7973,-1.541 0.5136,0 1.1738,0.477 0.6969,0.44 0.6969,0.881 0,31.471 0.9904,33.122 l -0.073,3.925 -0.073,3.961 q 0,4.659 0.5869,7.226 l 0.1834,0.587 q 0.11,0.44 0.11,0.697 0,0.844 -0.4768,1.651 -0.4769,0.807 -1.1738,0.807 z m -2.531,-45.887 0,-0.147 -0.073,0 -0.1101,0.07 0.1834,0.07 z"
         style="font-style:normal;font-variant:normal;font-weight:normal;font-stretch:normal;font-family:'Amatic SC';-inkscape-font-specification:'Amatic SC';text-align:end;text-anchor:end;fill:#000000;fill-opacity:1;stroke-width:0.35281518"
         id="path6309" />
      <path
         d="m -1059.5915,12810.986 q -0.8804,-0.147 -1.614,-0.661 -0.6969,-0.476 -0.8069,-1.173 l 0.3668,-0.587 q 0.5869,0.07 1.3205,0.257 0.8803,0.256 1.3938,0.256 1.6873,0 2.9344,-1.284 1.2839,-1.32 1.9074,-3.447 1.1004,-3.742 1.1004,-7.337 0,-2.787 -0.8803,-5.648 -0.8803,-2.861 -2.3109,-5.466 l -0.8803,-1.577 q -1.5772,-2.861 -2.4576,-4.622 -0.8803,-1.76 -1.5405,-3.925 -0.9537,-2.971 -0.9537,-5.978 0,-1.358 0.3301,-3.008 0.3668,-1.688 1.027,-3.338 0.697,-1.761 1.9074,-2.825 1.2105,-1.1 2.6777,-1.1 0.917,0 1.8707,0.66 0.9904,0.661 0.9904,1.431 0,0.587 -0.9904,0.587 -0.2568,0 -0.7703,-0.22 -0.4768,-0.22 -0.807,-0.22 -1.1371,0 -2.0174,0.917 -0.8803,0.88 -1.3572,2.347 -0.917,2.751 -0.917,5.062 0,1.467 0.3668,2.934 l 0.2568,1.248 q 0.037,0.33 0.4402,1.503 l 0.3668,1.321 0.5502,1.357 1.3205,2.311 0.5868,0.99 q 1.0271,1.724 1.724,2.971 0.697,1.248 1.3939,2.752 0.7336,1.613 1.1004,2.971 0.3668,1.357 0.6602,3.338 0.2568,1.797 0.2568,4.108 0,3.778 -1.0271,6.749 -0.6602,1.871 -1.5772,3.191 -0.8803,1.284 -2.2742,2.091 -1.4672,0.88 -3.3012,0.88 l -0.3668,0.184 z m 5.9789,-49.005 q 0,-0.07 -0.073,-0.07 l 0,0.07 0.073,0 z"
         style="font-style:normal;font-variant:normal;font-weight:normal;font-stretch:normal;font-family:'Amatic SC';-inkscape-font-specification:'Amatic SC';text-align:end;text-anchor:end;fill:#000000;fill-opacity:1;stroke-width:0.35281518"
         id="path6311" />
    </g>
  </g>
</svg>
